<mxfile host="app.diagrams.net" modified="2023-06-27T12:29:36.638Z" agent="Mozilla/5.0 (X11; Linux x86_64) AppleWebKit/537.36 (KHTML, like Gecko) Chrome/114.0.0.0 Safari/537.36" etag="b2-Xx5Kwi4lNfxgyekO8" version="21.5.0" type="gitlab">
  <diagram name="Page-1" id="7y51xw3ZaKoEBOs2BFtP">
    <mxGraphModel dx="1195" dy="666" grid="1" gridSize="10" guides="1" tooltips="1" connect="1" arrows="1" fold="1" page="1" pageScale="1" pageWidth="850" pageHeight="1100" math="0" shadow="0">
      <root>
        <mxCell id="0" />
        <mxCell id="1" parent="0" />
        <mxCell id="YtRP0REKgszaAL2Tqm2v-43" style="edgeStyle=orthogonalEdgeStyle;rounded=0;orthogonalLoop=1;jettySize=auto;html=1;exitX=1;exitY=0.5;exitDx=0;exitDy=0;" parent="1" source="YtRP0REKgszaAL2Tqm2v-6" target="YtRP0REKgszaAL2Tqm2v-41" edge="1">
          <mxGeometry relative="1" as="geometry">
            <mxPoint x="464.35" y="260" as="sourcePoint" />
            <Array as="points">
              <mxPoint x="424.35" y="296" />
              <mxPoint x="424.35" y="210" />
            </Array>
          </mxGeometry>
        </mxCell>
        <mxCell id="YtRP0REKgszaAL2Tqm2v-44" style="edgeStyle=orthogonalEdgeStyle;rounded=0;orthogonalLoop=1;jettySize=auto;html=1;entryX=0;entryY=0.5;entryDx=0;entryDy=0;" parent="1" source="YtRP0REKgszaAL2Tqm2v-41" target="YtRP0REKgszaAL2Tqm2v-27" edge="1">
          <mxGeometry relative="1" as="geometry">
            <Array as="points">
              <mxPoint x="984.35" y="196" />
              <mxPoint x="984.35" y="296" />
            </Array>
          </mxGeometry>
        </mxCell>
        <mxCell id="YtRP0REKgszaAL2Tqm2v-53" style="edgeStyle=orthogonalEdgeStyle;rounded=0;orthogonalLoop=1;jettySize=auto;html=1;exitX=0;exitY=1;exitDx=0;exitDy=0;entryX=-0.016;entryY=0.508;entryDx=0;entryDy=0;entryPerimeter=0;" parent="1" source="YtRP0REKgszaAL2Tqm2v-41" target="YtRP0REKgszaAL2Tqm2v-55" edge="1">
          <mxGeometry relative="1" as="geometry">
            <mxPoint x="490.35" y="320" as="targetPoint" />
            <Array as="points">
              <mxPoint x="490.35" y="314" />
            </Array>
          </mxGeometry>
        </mxCell>
        <mxCell id="YtRP0REKgszaAL2Tqm2v-41" value="" style="rounded=0;whiteSpace=wrap;html=1;dashed=1;dashPattern=8 8;" parent="1" vertex="1">
          <mxGeometry x="490.5" y="140" width="370" height="111.75" as="geometry" />
        </mxCell>
        <mxCell id="YtRP0REKgszaAL2Tqm2v-1" style="edgeStyle=orthogonalEdgeStyle;rounded=0;orthogonalLoop=1;jettySize=auto;html=1;exitX=1;exitY=0.5;exitDx=0;exitDy=0;entryX=0;entryY=0.5;entryDx=0;entryDy=0;endArrow=classic;endFill=1;strokeColor=default;startArrow=classic;startFill=1;" parent="1" source="YtRP0REKgszaAL2Tqm2v-2" target="YtRP0REKgszaAL2Tqm2v-6" edge="1">
          <mxGeometry relative="1" as="geometry" />
        </mxCell>
        <mxCell id="YtRP0REKgszaAL2Tqm2v-2" value="" style="shape=image;verticalLabelPosition=bottom;labelBackgroundColor=default;verticalAlign=top;aspect=fixed;imageAspect=0;image=data:image/png,iVBORw0KGgoAAAANSUhEUgAAAOEAAADhCAMAAAAJbSJIAAABLFBMVEX///9FWmQAAAA3R0//zLz/wQf/wwdHXWfXowbpsQb/q5EiLTKA3uqHh4fpHmP/0sGHbGOjo6P/r5RFNzOyd2UUGhzkHWHv7+8xQEf19fUNERM8TldCVmDb29soNDoXHiEbGxsoKCi0tLR9fX2rq6uYmJhSUlLQ0NAQFRcdJipCQkK9vb0wMDBbW1txcXFMTEyvjIFlZWXrvK3IoJN3X1hhSQPk5OTVqp140dxotb/JycksOkCCgoI5OTm6lYmUd21bSUMzKSVTQj1xTED/28o0W2AZFBImHxzimIFqucNEd31PiZAfNjhYOzIqSUzxwbKealofBA3LGla0F02YFEF1DzIUAwnNmwZHMCjaknw5JiB71uFfpa6BV0qocWAwJySiFURBCBtdDCd3WgOfDT+uAAAQJ0lEQVR4nO1de18TOReWtq91qVAK1pYW2gKFUi5SSm2RChRUXF0V3dVVd91V1+//Hd6ZnJOZZCbTJqGdzPTn88cudm55ck7OLZnMrVuhoHBS33ywdVorJRKJUu1068Fm/aQQzqMnj0Jjc98m5kdpfy7+NLu5LTE7h+VWbtV0I/WxnDsdyo7iNLdsuqlaaDyQogc4bJhurjJ2D7zqmK82M5W+jUqmWc17lfdg13STlbDLq2c100/60c9UeWWND8fVHabd25migB1FMbPNcoyH0Skw4680lJ6A5IMYeI/1mtPcpkg3Reg33T5ZN01gFA5dfqPFxwjS5XgYaddx4vJToAdwOZ6YphGMHG1jXkV+jhwd07ppmkgQHBNT0eBno+IYHNNUhFimPr6qyc8GFeNBBAdjYe2GAuTFuBY5t9FFgiWdEciiiOHcWtc0JR5Ugvkb8rORj6IUl9d0fYQI6DdqUaK4B23KjIVgMpmB2+2ZpuVif7wEHYr7polRzI2boENxzjQ1wPr4CTpjMRJxePfmfl4E9P1R8BmQzm+PmWAyCVnjqWl6ziC8qaP3oxiRodiAdsjmuirow61NV+F2JmBlKMCg7pglWIdgdCIEk0kIUesmCS5PahACcCiazKQ2JqijNkBPH5sjWJiojtoAPTUXgm+MIeUdDkiIN0wR7E5chFSIpiKbzYm5QhfgFE0V30IQIRWiGYLrEx+FNioGc4ydMESIQjQS2HQn7AspMsZsTW6i4YwLCGxyBhieTiYt9GPbUJ7YDcXO2DClpushKSlV0/Ct6WE4ltQGsaahT0ct74VjSW0QNd0LO4fqhhCxUfSNDEQYhqEQTCaNDMS58IYhDsSwi27E0Ixnqmk0SAH8MGSGtfAMDZqatZAZavt7HQ/aN5BBFbT8Pa4LUlpLRK4zUK1p6DB0FpOoCh8Yhlv83tVg6BJUpQgMw12cWVd3Fv0EC7VYoRS+Q6wrp07FBA8l+ZMEKtzqfk6ZIVSUrs7aZ1cJZQUgDMNNgglDlcUzuA6ol01le/CnSv/kI8+QLnQ6y6ZSqewZ/ENh+VTkGVIjc24TtCieq5qbqDPEpSOJBSBoUVzAX2TDvmgzpBrqEmQoSmpqlBm6C7jPXYKMosqFcNFlyCxQP2MJuuZGjmNUGTL8lto8QYtie8k5Wh3FMZIMixnmzabzrJegRdHV1JGvnkSPYZ972WfgEyAV44A5a1v4clT0GBb7lWY+weLiSCBAKsajC+7cfLPSFwnTPMN+pZIhr9z5Xhi9OEoF8SMcUx6OtsaSF/kylUo/Igy5AefBoBcoP1eOvUHg9XR4mmRYrAY277IVMP7847F1GXgXYmcNMmwGNazTag9VT6+ytludoFs1TTIU6ufzTquXGqmdfm1N9Vqdr6Iblowx5O3K1WDQOT87skSH7LKp63b7egRXS3oWUNz2le2js/POYHDFUSwZYkjx+on936Wn2SzDJtteIEHLUqcXSNGyMh1iSi86jEmyb/OUXPvkNfsYYww/fV68R6hwkfU1M6yCPf6le9Ild1KWMLy3+PmTeYZvF2f9DGmlguJMRDHbCj6JMpxdfGuaodUIP8PsUcKDVtYeclkKe9x5CcJJXoZ4c3MMLQkKGLa9bU8kek/bvaPW+UKn01k4bx312k97gpOyfoauFI0w/GQ3wccwewlHn305Pv7yDP6+8vqBr1f+k54LZGjd/pNBhr/Oihiijj66S/DCLysGL+CkR/AvR09ZhrO/mmP4ZFHEMDtg23737vEQgsf0JOiHCyHDxdfGGN4TMkyRYy/vOvgtkOBv7kkvyQ9tIcN7xhiCknoYoqd44TbeEeLVkhX3DAZLTsBy7J4EQjwSMUQ1NcDwr1kRQxiG+bsMXtm/LLQZb9Em5cRX7El5diDyDGf/MsTw9WIww6qPYYuLWYgzfMOeVA1mCAMxYgxZBfy7GcCw+bdXlc8iw5DMH34Sayn4+y9u48EV9FIsoBseuSd9GTIOZ4lHDHf+cDfY0qSyV54x9oacnOKR8KjpK+4kkaUJd5YblrV9FvtDqIM67gL8QMdT8+6IThqI/eFncjDkhW3kmf+I/eF1AgREhuIxRmTeLBHD0mdw0hvPSTzDf8jBcAniC0FCLXWnXV69fPkK/1zw5k/Zjv+kjijytkAOhv1q0AkjRH9+6KsPLqV8uPYVSi+uUyKGKMLQ9+XZcUeiIMe/5Nv+9VqQArev+JOu2u4xNnuCURj+GxdgTQlFURWDqw0OxIXFa64fLq/Z690MGDMLA5u57TsUgeEFP8zcSvblUeC8xZkzw7bkKXRcIEOUoJENJArYtrdChqSSbWX0C632kHJiNtWzS4ed855XypQhTfCNvGRJN/a6evuv/b/n1772Z7n6opijfYL/pGsyRv99S4eqoe2/dnlL0RYx0ISn0mNsR8UTrhm90Q2XBl+mMriBW5fdA1JYFNUDs47B8hNmd/+ou3MXvrDlBgwXnLuWjG44QLC+hW0ZjJEhdTVbkdig5lahQd5NuPIZU22AKT1sRGcvrFUwNeMSIhazorRfK+yPcT42hpCcRGpnQaKmX8fGkEwBhP2SzHCsj9Xng5JGw8hQdMfpL9BXRGETLAawu+5YCGKVKlpKSmPU1jiEiFOnkdvdmyzV82ZQeiCZU800IR/qKMSbA0QYUrBWaOTmJAHFt+cLN8dzcqcN2Qfn9COf5fp+Ih7Yr2sFB5vDP70RMajv0dOojb5rpFBTfD0xN/qWkYPS7Numc1mpmYk2qu5gUtBUR4L9lZmZdLQxM1PuK0uRFpj69vUxQDpNOUqWrJbByJTK8eBnI10GXa3JeQ3Yc7W0Eh+CFsUVoCi1tQTuZxkjCdpIl6HZMkIEERbjRdCi2JcWItlAftt0gzVAshuJ3TMa8RShJUTZnRdASeNH0KIoqaYkn2jGkiFZejVyKhV2uIqhklJbM3LHLJjZTZpurRZgP6lR+TAwLJturBbKPxnGnqGclsIXY+JpaYpywTf5LlUmlgzJ7hQHowjCp8VKsWRI0ovRC/x2YzsQwdCMngzoxjwulZixIgtIqjFkSBb7yyxh3IQM33SDlQFZvky9rRHTuC0pmTzdwiXcN/MXWOcLPij4ceZmlT3wFXKLwYm/yN/kYeVKs5kpCktZ6ZmkfTA5k/ZeUbV/vQFIii+32/A66QztgZgu050/KoKD+BmnRIm11it044Jt/frXCrmB3OoGKLb1NZ+VZjbX8ylCmtlaMOM2jpnl0nVTeGfJWTayUE0zzU8nEww8TifNbS1YoQe5aTxNKUKCvyVHEOdltB6EyhIgEs9BCJzSFf5XzeFBrpWdm4FVanrDHsfg4SZ89JELcKmO7uNndVFN4B87uQdCuUsCVEd2JRzuRq7xJDTZxCttMHLCo8TK1Ky4avnUVRNom10iwy+c6T9Yfldz3fyCColEv/6KDygpWWRx4tCHsVkiz10XqbbckxV3ptfML+jcAZYsyRRWkmkto0ldlyHpFSxVP8YBqkxRNq+gKOh1JRoSrFj6RnOa2dK54TIE3pgSbOlZG7y1wrITvfwCrAwdDAfetrIVWzDX5AHQ/Wjn8bO7VVWG0nkFRU6jJ6mVQXsGhobtpRVmH5199yDYH/pxtVUtawPao7JUQcNfUG+OY6Ge8I1lEFbDFRWGTRgjYMClZW3UfAWBckd6rAyKosLcAbuAHO6yPegRvoa1UckrKIiOqUwi8lamUPIPJ7YUBhJ2DsGOaPQr1fvq1oYoutpLpsr+Ahq5hlYGTKKnUMB8w4F0YN6REobeaG0KNVVro+orbCjmF0Ir41G0FaYZe7wKUxXXtDZqeQUFY+wkHiG0MryxSDPb/0P/McEAvYGetQFfofoOpkp+4bEy4vASUghwWbu+geZRgjk1a0NOVl2dqOQvuGEU4LTTTJWBdJ/HjgkHstzjNXyFDfn8AhO8NS6W8ZcjGTUkmYUnxUZjfMB1U0Xq+ZBXqBJUyC/QEg6zMjN8R4tGmdDaSJVtVfMKCnl/AU2rs5f5jQSbQjSEt/aYq5zi89VfXpD3FyAdvOw0QLvA3m25jfeLB7Wdxs+yhkDPV9iQzi84hjtB40ccdo+DoXJeQSGdX4CWYGAfpKVwEqz/ZMNupqWaWqqeV1B0ZTuRtzRiV8aG3WJHJAzdJdwFn0GrAT5aNVpNcSDQwFmYprMWfZ0c9/UTXMbHphJmAO5c0yEIaYyU0wUh8q7M4/HzrnzEfggKBB6nKv1wvY+Tq/oLmr6IAmc27N4R2KKA0F362XovuhVkFUUicGaWuojKXJ4bCEP3gEcr16BYEKuelw+cgtN0cAQwDE/8w1QcusuFbES7dfd2yQlNghiiNN116uCzmLCbH2GeAoFSBkzO1d2sDs26VAojNIVuI5l2bPkGqUyBIABpzbyCYs3fmMBHDU3Ty0w7fKObqji6tKDQXfzYG34accOvUMHPElob8OsYdhMZ+cNurCYOKxAEQ3IdVBBOfK0Z2Z0eawN2iq12170qiBXhoQWCQLDBoBZ8GjUUouFEugfWmEOZgbzWzobdZX0rw02F6GHL25yh4K0NE36uMD1N/qyIXSVNTaTnn9mcTAvLEI7J1mZFs2tkPDGGxj8jVWRshZKVmaFdV9LfIgSrz3L+YsZjbZjYhZHhuq/PiAxhhlTRyjjLIrQ3c6MvWsrPX7Cz3A9cacE4PLW6ukAcEBd2lx25n+g+TtfjdxMUCpMkuFJhf67GXEpb8hi1kLNdUEhKnG7C1hoq05Zpp4V6u4QcONcrzF94FpQgF8+vfFBaHHJwOMrORaPXPgtQ97VTBuky21pa9WXXQvnriNzHeBRm1di7amwygS9avrP/I5Vf0McyImFCb2ZZkL+/mA98SVu1GZpXvIML1e0pDJn331Q1x5IibXCG/ZV+dack4kD5V5VezQXd//ae/E85cgO/9W7+d+WetZDMNKvNPq9vafvXZsWz7JIeXClaB/tqq0zQV/w+D1JUzS/A1v8xD5erLlMSr6AdtaxW9SEZEML8H6StimV9EOH3+fn5D/yAihCgivnBauN3DSEeogLQDori+xdlqmY4lJQ2lgJn/9+8jQD7ZxzoK0gb/yN/qrj9DUeEeLXqIqUwUHWlAEJUKJouMyKcf6/sL8IB+Ir384wQ5X1i3dFwp38i95oQRhagZ2gt5AObAzTDgO86/mLiAF/x/T42kjg16ei0y8of/UXk3tCHvOIDbeR7JVsDK01o70TUX7i+guA++afsipNTxs7YF/8ZQX8BvuJPRwxga05VlPSbcy0MRJX8IgRAXuGKYf6bgppC8eK+A9Tx8sxKdIBK+n7ebSb5IaicsYsFhCnDIZ1VXI7L5oHq2CcxALw/MqUgy+qnV4I2Dp2pkKlFA9OIH3d+mTbc+UGYPYZZ0B+3pxGE4hrMBX28/b/pw+2PhBswvDOVDO/8ZBh3/GQYf3AMp9qWkqj0oWnXNRE8tKnt4Zrehx/vTBs+EoKJObo+a2qxSmeZphVkWvFg9HmxBVZQp1eKzsTw6tw05vl7c2RG8f+PQ4nmRM7BPgAAAABJRU5ErkJggg==;" parent="1" vertex="1">
          <mxGeometry x="102.5" y="258.75" width="75" height="75" as="geometry" />
        </mxCell>
        <mxCell id="YtRP0REKgszaAL2Tqm2v-3" value="Developer" style="text;html=1;align=center;verticalAlign=middle;resizable=0;points=[];autosize=1;fillColor=#f8cecc;strokeColor=none;rounded=0;shadow=0;glass=0;fontStyle=1" parent="1" vertex="1">
          <mxGeometry x="100" y="333.75" width="80" height="30" as="geometry" />
        </mxCell>
        <mxCell id="YtRP0REKgszaAL2Tqm2v-4" value="Push/Pull" style="text;html=1;align=center;verticalAlign=bottom;resizable=0;points=[];autosize=1;strokeColor=none;fillColor=none;labelBackgroundColor=none;labelBorderColor=none;fontStyle=1;horizontal=1;rounded=0;shadow=0;dashed=1;dashPattern=1 4;fontFamily=Courier New;" parent="1" vertex="1">
          <mxGeometry x="172.5" y="261.25" width="90" height="30" as="geometry" />
        </mxCell>
        <mxCell id="YtRP0REKgszaAL2Tqm2v-5" style="edgeStyle=orthogonalEdgeStyle;rounded=0;orthogonalLoop=1;jettySize=auto;html=1;exitX=1;exitY=0.5;exitDx=0;exitDy=0;entryX=0;entryY=0.5;entryDx=0;entryDy=0;movable=1;resizable=1;rotatable=1;deletable=1;editable=1;locked=0;connectable=1;" parent="1" source="YtRP0REKgszaAL2Tqm2v-6" target="YtRP0REKgszaAL2Tqm2v-17" edge="1">
          <mxGeometry relative="1" as="geometry">
            <Array as="points">
              <mxPoint x="424.35" y="296" />
              <mxPoint x="424.35" y="386" />
            </Array>
          </mxGeometry>
        </mxCell>
        <mxCell id="YtRP0REKgszaAL2Tqm2v-6" value="" style="shape=image;html=1;verticalAlign=top;verticalLabelPosition=bottom;labelBackgroundColor=#ffffff;imageAspect=0;aspect=fixed;image=https://cdn4.iconfinder.com/data/icons/socialcones/508/Gitlab-128.png" parent="1" vertex="1">
          <mxGeometry x="262.5" y="251.75" width="89" height="89" as="geometry" />
        </mxCell>
        <mxCell id="YtRP0REKgszaAL2Tqm2v-7" style="edgeStyle=orthogonalEdgeStyle;rounded=0;orthogonalLoop=1;jettySize=auto;html=1;exitX=0.5;exitY=1;exitDx=0;exitDy=0;" parent="1" source="YtRP0REKgszaAL2Tqm2v-6" target="YtRP0REKgszaAL2Tqm2v-6" edge="1">
          <mxGeometry relative="1" as="geometry" />
        </mxCell>
        <mxCell id="YtRP0REKgszaAL2Tqm2v-8" value="GitLab" style="text;html=1;align=center;verticalAlign=middle;resizable=0;points=[];autosize=1;strokeColor=none;fillColor=none;fontFamily=Courier New;fontStyle=1" parent="1" vertex="1">
          <mxGeometry x="272" y="318.75" width="70" height="30" as="geometry" />
        </mxCell>
        <mxCell id="YtRP0REKgszaAL2Tqm2v-9" value="" style="shape=image;verticalLabelPosition=bottom;labelBackgroundColor=default;verticalAlign=top;aspect=fixed;imageAspect=0;image=data:image/png,iVBORw0KGgoAAAANSUhEUgAAAOEAAADhCAMAAAAJbSJIAAABmFBMVEULVWX////iQyn8bSb8oyYAUWIJVGQATl8AUmMARlnNTS/1bCjfQykHU2IASVteT1MASl8ASlkOaYsAYHwAVWsAU2ba6vjI4PTGwKmNvuL28NcbRFrS5vaz1O/Y3+GSgGsAUIHd7/f//fSLkH9ff4r//+309PX3/P8+UWGGh4Jopc2tqZkceKJQXmiXsbgvbXpkbXHI0tZokZtRgo4ZXm2wx8yDpKvl7e9Dd4QqZnStwceGpKw7ZXJygXfz39A/XmL98+11c2jrQiQtU2DajS/zoCjubym65fqdSkNRUFimhEKcf0bnYireZi7mcSvcfi7emC/IkTdjbFUkXF+5izu8oYmzRzmETEluTU2qSD2BTEnVRC6TS0e/RjWnSUBFUVbQWS9AZFlXZ1nZmC2Me0nleivcVCvnlCt5dE7FUzLOYTHdiC7plipZalaBd0wtXl2bZT/jy7B7aGm1rZNOiaVXjbbh0MKnknbTuKF8bl6OocClq7ahh35ho768ookAS26qutWWm5kAWI6Auc8uhrBPi6PP0cVhd3PVoiBFAAAUb0lEQVR4nN2d/X/URpKHpTmrpTGWsGG0m4M9QRw8JpfNDPP+QmI4GxPewmtIAoYQwsuSQMJlN5fN3iXLJtwl//Z167Wl7pa6S5rxfPb7A9hjqd2Pu7qquiS1NH3G2hx5XmfaGnZ74/Zk0tc0rT+ZtMe97rA17XjeaHPWHdBm2bg3wGDtvuU4pmkYiAgT+v8bhmk6jtVvY9SBN8tOzIiw2ZkO20adkFk+Fl8IWYS0brSH005zNl2ZAWHTa+GBM01LTMaQWqaJh7PlzYCyasLRYNiuO4YCXUJpOPX2cDCquEeVEo6m475hWspwiSzT6I+nlUJWR9icdvuOoT52zFgaTr87rc5cKyLc7HRNs9To0cKz0ux2KoojlRButnqmWX70aCHT7LUqYayA0BuaVVgnw2g45rCCSFmasNPtVzx8FKTZ73b2mXDQq8+ML2Cs9wb7SNjpGcYM8QIZRq/UOJYg9LpVuxe+sNPplpiPYMJR15gLX8BodMFZAJSwNZkbX8A4ac2VcDBx7DnyEdnOBOZyIITNoTV7B8PKsIaQXA5AOO078zTQRMjpT+dAiD1MVemnuiyAx1El7MzXw2SFPY5qcFQjbA73cQADWYbibFQiHPX2aQbSQk5PyVJVCAeGud94vkxDJW4oELasecdAkWxLIfxLEy6EhUZSsVRZQm+8GBYayRzLJuOShJ62WIAYUZNElCOcavuRpuXL0OQSHCnCaWVVtCplmVKIMoStBfIxtJAj41IlCFszKKRVI2RIIBYTnq4vKiBGrJ8uT3h6XzPtIiGzELGIsLXAI0iE6kWGWkCoOgftndJ9VmyicC7mE04Vvaj98fKFkmN+8v7eJ0r5L3Lyg0Yu4VR1Dt7brm1/qnZKRvad7VrtotIpKD8u5hF6mmKgt+/XarWP1c7JaGevVtv+RO0cKzeByyH0lFO1iyuYcK/UVDy4TZpQPMnIQxQTjtRXE3dJ92qlzPQOaaH2QPEscyxeTIkJe+qriWW/e3eUz0tk7/lN3FM9z+ypE7Yc5e7t+L2rrSifmOjToIn7ytUEcYoqIhwA7hf5JOje9kHlM2N9tl0DmamGLFHtRkA4MtRrMujjoHclvClaCf9Iit4UyzYEU5FP2ARMQu1k2L3aMtibXgyHsHZf/Vyzx6+j8gmH6pMw8qSlvOmdqIUVZTPFU3EoT9gBrQjvR93b/gxwNpG9HDVRUzdTnKFyC/48wtEEUrTYWYm7VwOcTnQwaQEyl60JbyryCLugutrdpHvbaollrAvbSRuQuWx25QinIBu17yS9q8HM1KWsAJTAI4OTg7OEzT6osEYbKdCbPqCGEOJNsZ32WX/KEoL8KM5G6O7VQEGfNtLaHsCbcv0pQwhJZog+pgG3LwBa2LmfauIupBec1IYhnMCq2zt7dPeU1z9EF1MtADMjY1JECEi4fX2a7p7iMt3XvZSd17Zh1/KYFDxDOJoArxHeyRACzDRtBdByiJ0NihlCWCjE7WYAa/eVvemDbBPABD4bFNOEHrSAf3A70z31oH8vS7h3EtQVZHg5hNAhZIy0tq26TLfvM00AE/jMIKYIO9AK/s5ytnu1PcWmLjItQM0UmR0hIWRV6Osg270VRTP9JGvnWECvly7a0IQD8GW0O2z3VM10jwWEmilK3Y1CE/bAl7JX2O7V7iv9uR7wmoCuM40en7BTBzbIelJ/BJQSy3u8JsDF5XqHSwh2pNpnnN4pVpMYT+o3Aa3a0e40IfT60FnI8aS+mSo4ih3eEMKLy6jvcQiH4CHkGqmaN73Lb2IPep+ZOWQJN+FXsy/wu6diplwjrQHXmRqJiZsMIXRREV9r4JipdBMPBE2Aq3bUEiMi3ISHios8R+/3T9rGBEZaorhs9DYzhOCETWikKmYqMlJw1Y5K3SJCeKhAwu5JB31b9DeqbV9wgd2KA0ZI2IQP4YO9ZZG+/PSglO4KW1hWv84WCpnNFOEUPISNy9cOCPV5bUVCe1fELZy7CR7EaYoQbqT29d2r/yLSh0IDprV3XtjAtaVLZc00IBzBqsBY7s3dpRfiHvKznYyeCk+/ihsHdkyz+iOKcAoOhu7lpaWlc8Iufi5D+JXo7PN/wo0/hA5ieCdRQDgGB0N0HXdi6Zqoj1dE2QClZdHJBwjg0qUGsGvGOCEcgZNu9yXpxNLuE9EoiLIBSp+LCK/5bV+/BewcCszUJxyAh7BxeSnohmgqFpvpyhUR4G7QNtibBkt9rdSyAtmPgl4s/UmAWOxNVwRnXg0Bly5DzTRYYBDCZhvsSb+IurH0XDAShd5UMA2DSehPgVVg76x2MyT0wOWLyEhJPwTe5mkR4Yd8wHNxy3BvWvdCQvjCafVR0g9B4P+wwNfsHeCedi1pGG6m/hKKEIIXTu4tqh+CwF/kTfme9Mku1fAjqDf1a25amWnYeEwTCgJ/vjfle9KrL+h2d78Amqk/ETFhBxwN7RspQn7gz/emKzzbTrxMoMdAM0X9jk8IXldQnjT8Y/MC/4Fcb8r1pM/TzS5dB8eLqU8IjoaNbzI94XqbA7nelOdJr+1m230JNFMSETEhfBo+yvaEG/jzvOkyx5NeZQDB3tRq+4TQ6zFpTxqKE/jzvOlTljA7CYluAFf6yCCE4HjfeMYh5HmbL8V+hjVSOtQn1n8GaKY45mv6ABrvM7Ei6gw7Fa+Ix5A9+Bqv0SUooTPAhGBH437N7Qwb+K8IvemXDOATdhIulVhBYVejlSjRuKynITqXnVtib8oYaTrUx7pcolijlSh2u7ducPvDeJuvBIB72YSG52WwwNUoUvrWRuBggRG1S7wOMYFf5E0ZT5oN9UFzN+EPi1ntkQa/bIiFSKmN06esAxF402zWzYZ6rBsvoRmN5l9I1DzgvYihGrc+4vQq622ucAcxu7rnhPql3ccu2EQJoeVpHfDiMJCLHnMQM8sMfskt40nPX+dZqFvueUano8FLpZEaDzk+NR34+d40XQnmhfqP7BIWGhBOtVb57SBcm7XUjLfhedOMJ+WE+md2GQv1ZbY0+OV7CrHBOpz0VDzAmYhpT8qG+hsPyw4gIRxq3Up2vGg8ZEJjOvBz0pqUJ2W9zKXyA4hldDV4wE/JRZezXUwFftabpjwpE+qxi6kCEId8bVzR8/bI/TrjC1P1RXaRSK/uGS9z41YlfLhbY61d2Y4CTBJHB37Wm9KeNOtlHldioUSorU2q2zPBdZ+lZxPtbbLedI/KujOT8NHDRmWdQhOtTNLGqJGxVCrwZ73pSuKIMqH+o6oslAj1qyXEw5jOxZOpmC25JZdF015m91mjQkBCWLEylkoF/qepQaQqwakFxaMqguCM1XhJO5xkKqa9aVJkSy0oLlfmYmYp135M9TmpL6ay79iT0l7mekVBMK1q52Gg1ZuU74gDP71IjIts9CS8cat6C8XzsMJokYjOxePAf4AaxOiaGhXqd7+ZxQDiaDETQpzEJRX/KPCfp7xptDRMQv31r2fiYjBhdTlNWpTDibxNktZEnjRZUFxCs/GhOKepKi9l5N6KQ2MY+JPrbMsBc1w73H02CwslwnlpRWsLjtzE4TzPeNOnaS9TqtiUL7y2qGZ9yFeci4eBP74c/FUq1M8yCOL1YRVrfKHiMtUL39tEBanAk4ah/sXN6vJsVniNX0GdJk/uF4+SwH/+KeVJw1BfaZ7NymxVUGvLV1RQfZ54U9+ThpPwMZptmuZMS9dLC+WuBrn4tdibkjtmg1D/aHYuJpTTKVvzlpH78lEU+PciT+qH+kuztVAtqHmXum4hqaBMRQL/56EnJaH+xbPVmS8kyHWLMtee5H+RS0LjuQN+yQ17UhLqb0BvsFARufZU4vqhinyH89y/zval72Uuz9jFBCLXD0tcA1aS6z7eXXqCzRR70uc4zy55xUVS5BpwiafyFOV+cX336oeY8BoOgnOqVfjX8cH3YijLtS+9OL/39MnuN7N3MaH8ezHg988qy3W/Off0qxvQWw0B8u+nAd8TBVHj5X9+M8diU3BPFPy+Nohce57VtPC+trm5mvkrvDcR/tzawiu8vxR+j/CiK7pHGH6f96Irus+7xH4YC67oXv0Sz1ssuOLnLeYY8+er+JmZf9aJmDz39M8aEZNn10o8f7jQop4/hD9DusiinyFVeA7YMiLRFSzb/wRRR6D4K4s+xEq+DH8lSj43MkL0r1N/pR39HLD8s9yN8YlY/Xq0KrEn/gfvkW/ttv/1GaS54bH+JLf7wSFWfMQJf1MP1Ai+sdJtB78AIeqj91TfPJx6llv2eXz70B+asbzO2+Fbktb+Vcffn30LD4v9KjjimIsO/97/6uwpsphY+3dyiP7GanR0Uz9GRtH+4wh/vXnkaLpt/8T3jca/Jd+OvJ9NFX+Rfh5ftlhjH/qdTmsreA4C9xlr/S3ciH38Tf8nx1z78O/14OPVgJAoJPT17apP6O+yEhCm2tbXCWHqk7NvKzwwm95TQXZ9kSXUt05ZRYT6DyafcOsBUiTEiPKjmNkXQ3JvE4YwGIh8wiM24hKuv++qEupb0o+WZPc2kTRTlnD9P6wiQv3PFpdQv23mEm5wCPUfZZOT7P40knsMsYT6X1YLCf1DOIRk/FnC5ijUWR7ht5Izkd1jSK70HRJunDRN87sA5fudQsKtk3zC9YuIJdzYMUPhiBsQrr/tGOahoLUjJ+XMlN0nSm4JFRNaCK39V0iIigjPYkvmEep/dTmE79oolBYTmgjZv/gHBrGnWOxeX3L7tcWEJN2Y+CwkYBQQ6u+YfMLvHR5hEppjQmJf9Q+iv5aEePu1SS0w0oS/kyXEk4dLuPWbJU/oqBDy9tyT2jeRO4ZWIeHGUT4h7vpsxpC/b6JMwABaKf6OS6j/sDobQv7elzL7l0IJ31jlEx45OhtCwf6lEjU34DzEB/EJ1/9mzmIeivagldhHGDqGG+/zCfW/OAzhybpD5GYJ5cdQvI9w8V7QqXgY9Lko4q/7/96uZwnXveDsLOF6J9AxV0vFw7U/+g2cfVDsD8V7QRenbtQYWmFO80ZB1rbx3+Tfb48yhP9D0I6cEeWlf19NjSEKf7p1tHgIc/bzLnSnUV7qeV60Pz/5W+cSniAfrB9krPQd3+p+FBHeTgj1ZvLr/l6cl+btyV64rz6beW+taQWE7/q9/CtL6H/yrQxhoiNnCqdh/r76RYPIEK6fMooIT/1E/vuBJTxEjjwrYaWUflQeQsX3WzCEx/y/SD7hccKwxRK+Ij9fPy0aQ5ND+EPx8qDo/RYFSwyG8GBhnWbj1FEy4Tb+wRDWX5P/Ollf+vNpX79ZHEKJ9W/RO0oK3jMTEZJSma9g4ucTBmGlyRA6vySf0xE/WB2S+RZ7mmYzWCoUr3+L3zOT/66gKFqcGI8/CHp8tJgwWitnCc0ghjOEbE7z83j8OjosXzLvCsp931McD40w3m+dKaq1bZwyXiW2liIM2ygmfNtZ+1//sPW/FbhSmfc95b6zK4n4dpBibLxf7Est8yc+of1dvEwtykujZt/JN1O5d3blvXctIUSN4FfeNosJ7V8EhK9i71mYeYcW/X2uq5F871peUKQJA9MrrJdiQi2ZcClCzXktTZiaFSLJvjsv5/2HVF66Ss39IsJkwqUJQ1OXIQwtev1UDqH8+w/F77CkCKNJlOSl+vd1pDnxxxShHXvTNCFyo8GlCQ07FKIIrcNBnLotnogK77AU+1Oa8HjQa1LutYPCov7OWj1kWf9zijCecGlCbTVaKlKEp96LlBrDV8FqMyciqryHVPguWXoFfDSc+zuY9tCb0YlUjxNCbS2acBnC2Jvyr1uY1Ao4nBVnL4rcoNq7ZEXvA6YJ6bm/+jpzPk6vaMJ4wmUJj7+ZR2hQhHYQEc++JagIK74PWJTa0IRhr4Nf/+rN1Nn+wFKECH3AJYwrGhKExzeT01gpv9NZkIJz6jRBRDT/j0bc2iHjRhHGEy5LGA1uMWFBRFR/Lze/aJMawzAibgXJN9W/N87416/DOo1PGE24LCE6/AdZwvC0Izs844K8W10fjVlE+/DAw/rV/y2rP3n+N8Er7gzzJ6+JPU3z1/Dqvt2Y+j/245v9yj/RI1hmcN5b/iKm8Tpo5GjUdqJffzOCn/7q/5GM74KP3+UQmmPBJMwl1D2NXUjZa3Ws1eCXmHX/m/BHyHR73RMn3nOM1LH1IETbjv+NmZwXHrYWNxIeEsuxokODJozgYw6goXlijBxCjKh2DwsC3fZSXlYeYC6hPoW/uWSOQiYn35Yk1KfO4iMiJxewgFBvzfNhDJCQIYwTUoR6izezF0ioXgBYSKifXui5iMzTRQCFhPrpBR5FVC8ElCBc4LlYOAclCXGKupiISJyMKhLiuLiIt7pb+XFQiVCfchK4/ZahSQFKEuIEbtFu5zdzUzV1Qt3jrDT2U+ZYElCaUB/1FsjfIKcnXi5BCbFLtaBv6qtatiXjRNUJ9YGxGJZqGqKaTFnCxbBUFQtVJtSbw/1Y4aZkGUN+XbQaQl3vTPY1E0fmhFu6r5BQH3X3cRgto6tkoSBCnOD092k2Iqcvl8aUJcSz0dqPJM6wFGcgnBDHjYkz79hoOxOVGFGWEIf/+Xoc7GEUgnwlhMTjzI0RmQAPU5oQJ+Ndcy6MyDS7sml2tYQ4OPaM2bscw+iphsDqCLHL6ak+2akmZNZ7MAdTFSEex25/ZozI7HdLjV8lhHg+Dk1nBuU4ZDjmsMT8q5BQ1zdbvaodK3YvvdZm8a8uViWEmLHTDe+YrEIWbqvbqYSvMkKs5rTbr8JasXX2u1NIfsZXdYRYo+m4b5QaScs0+uMpOLrzVCkh1mgwbNcdA7BlKLIMp94eDirF06sn1MnTEa1eu49npTwlwjOv3+61vOqMM9YMCImanemwbdQd/2leMSnCA2eaTt1oD6edGdARzYgwkDcYdvFwWg4hNYJnewkWlkHIHAsPXHc4qCDqiTVTQqLNked1pi2MOm5P+uSNIf3JpD3GYK1px/NGFcUEsf4fPQIYojc7CPgAAAAASUVORK5CYII=;" parent="1" vertex="1">
          <mxGeometry x="269.5" y="428.75" width="75" height="75" as="geometry" />
        </mxCell>
        <mxCell id="YtRP0REKgszaAL2Tqm2v-10" value="" style="endArrow=classic;startArrow=classic;html=1;rounded=1;exitX=0.5;exitY=0;exitDx=0;exitDy=0;strokeWidth=3;" parent="1" source="YtRP0REKgszaAL2Tqm2v-9" target="YtRP0REKgszaAL2Tqm2v-8" edge="1">
          <mxGeometry width="50" height="50" relative="1" as="geometry">
            <mxPoint x="150.5" y="756.75" as="sourcePoint" />
            <mxPoint x="366.5" y="808.75" as="targetPoint" />
          </mxGeometry>
        </mxCell>
        <mxCell id="YtRP0REKgszaAL2Tqm2v-11" value="Agent" style="text;html=1;align=center;verticalAlign=middle;resizable=0;points=[];autosize=1;strokeColor=none;fillColor=none;fontStyle=1;fontFamily=Courier New;" parent="1" vertex="1">
          <mxGeometry x="277" y="503.75" width="60" height="30" as="geometry" />
        </mxCell>
        <mxCell id="YtRP0REKgszaAL2Tqm2v-12" value="" style="shape=image;verticalLabelPosition=bottom;labelBackgroundColor=default;verticalAlign=top;aspect=fixed;imageAspect=0;image=data:image/png,iVBORw0KGgoAAAANSUhEUgAAAKYAAAEwCAMAAAAKHvqvAAAAsVBMVEX///9TgqH4mB1CeJpHe5xOf59FeptMfp7b4+lbh6X4kwD4kQByl7DE0dtAd5rr8POhuMnz9vji6e7L1+Crv87S3OTw9Pa4ydWDorh6nLRijKj4lQ+vwtDBz9r+7t+bs8WPq79rkq3/+vX+9Or5rFj5qE77yJb7zJ796NT83L76sWT7wIb7xZH5pEL6vX76t3H80qn4nS394MT81bH5r14wb5T3iAD6tm35ojz96df948tG2wZhAAASfUlEQVR4nO1dibabNrs1lpg8MGPAxgF8cpIm+TM1OU3T93+wiwQIgcRoH4vc5b1WmzYGvJH0zZ/k1eqBPxBPogmMw5eLaAaj8OOnaAaj8Puf/0RTGIPL9rtoCqOw2X4QTWEMPp+eRVMYg4+n7Z+glH6dNu9FcxiBr6c/Yta/ntYb0RxG4ONpvX0jmsQw3uY0/xZNYhjr9XrzTTSJYWxzmssX9TeI5jvRLAbxY/NHjGauj/6EtZmzXC/f+fhri2j+JZrGEL7g0Vx8oJEL0Hq9eMf4G6J5+iKaxhDQWC5fgvBgLn5pXjDL00fRPAaAVPt68f7Rf1u8NNeieQwAj+XiDfrPkqZoHv14t/0TBvNDuTBPoon04nfJctmq/U01losO0Z8263Iwl5yXqVkuWX7eVCwXPeW/K5brzYJ9jr+3FcvtgtPZ32qWC16YnwjLzVfRXLrxlrBcsPg8fT8RlgNh2uVvYRr1723Nct0n5Jcfz7+EsXxHJjyn2c3i8uPtP9/F5Rd+Uiw3nSw/fNxut+JSSm/Wp3oou8byzafN9rT9Kk7pf6AnfM1n+eE5X7sbgfNNaUsk47zRurxf5yRP2//dnVtN4Zlelp85Vzx92iJDv/1XYEmDXpbrLSd38PQFa6qTUOv5gxrK9fYT8/mlIJkPpUgX+VOD5Q/m83elzhe5Klerj7TwnH63P/6wLpzPzZr56I64/LupWW4+t0X8qfJEtr+E0KtoNISHcdy+VTaesxbuiDcbmmVbjC/VUJ7WQiurvxvC004b/Fe9w+ZZaET0V4Nl2wQSd2krNvHeGMtNe1p/EZZiy5VPmz6WzySfIFR4VheKJNt88HkhLFf/0jLeXpefTwth+ZWackbGfy4lg0R7G4ytJkZedKD+RNvxt60PSW7m9K8QcjV+Uguznc26kOUguquH1uvMwvxVvcJGqOOW45mKIdutrvUriK6zvKEHs+2QPy9mMN/VyogplNcWVPTKrJU3ZzC/kM+ENyRQg8k0YZPPTkLd9VVDaTJiXgvQiY0w7wvKgWO6Dt5vFkPzr5588Nc6vym6C+VNz8TW0nXipWjuiUutwBk3rVao4ttQyIixPRy0Eyq68kscD7bzjRpNxnO6N74Rr5cpon2mh1OwGSKKk530XxRNVvffGdWYsSL0ng43RVcsqxCDVUj/0bG7cLPeqd4vDZqiG5+rIu+W+YQOP8RLUacMfWgMp+hpL9lwvLXGaK43gi17GUuwFvF/mwZPwdL+1NVY1hQi4d0elRQxH7xrDqdom/mxqPWwtdzm6uRdcU9cytFiPmgJu2iPrnCPOeH4x5a0Cw43CpvJNsFd2tMu2EHGGUKOjDQtO8dDuTNwvpVbpmwIu/B+cuzScVTjr6ZWEsCsgQvqO+KpRjo1z/FQ7o0LKlpypv3S8I9FB5lleYjT8kprzwXQxDx5uYO39bSLTshioNZXTsXvd08ORwgwT9ZPJ8Gw6FijAuLJ+ukkyhQdahA8nU6s5a4ydwuZc4Sc57bdclI5yKLDdRqX9YaZ9jJeEp1LauDyvV1HLUdzadsIPre0eOGPii5Vs3huhsPYDglu9ODibUPzoBLRZkxWztYCL0mswDVfiVcbjQQxYjksPo51NABUc0AF6IlzCxq24+Yvnlr+iGvzOR8eSzN7MVRdVwGUJQQV7LSrGDrnZCcbxouSng+jbvjOaUZrQ5Ms38Z095FREJWNdC5FzdoBAKFiZPHoSXm/HdHoQb+wGRpSMaLSjDVqBxEAqpxPRxaMG0aMp39OkzudfbUcUDiRpx3s8KqRge5N4Jjj9HGGK3yQSp6yPeEuPyxWtgx2Y2SGxtt5Sv2glvMejb4l1kHxbsp04fsxN6rwy/UJ3FGX24kCpfKOYOZXzkJYDI2kj7k4McrRlyR4e5amH4dJxww5oByc4RnUVEIyv/4mdqHAQTtboQ6Nl7D7ocdydSZDDzMNiYJ8vJ4nMl5JeFSBAlVZNqI+fZMUQyRnQw+NFanBE+yCWUxtU3MDK93lw5fbhlInSlDv1xrnUibUwcfTc16oWwCy1Dv7Tr/utE1H8/dBbCVhlEkAIMulVvSKBynAGvh2t6QJh2iu7NBoEc2/AXswABhQOma7KCSIol121KV8xBAUBWJqsszcrwApHDEt42nmy9PSK5+FA5lB15UFwXwy9NDzx1mWoKQpj7p65QSpjpd8H4V+emj8oR5ZZ22C7atEaDf+ltytTiIdlmtsBGFZRu4tWh2qvkOrebqvoxdPUofWMIuDhpzhMDrKxfpDSxAjJ4QASsjHXZgmceBq5hTXoYEJ6r0P9sHM5Vnzfd/FyP9D0xxzPq8WyjkfZyyFwS5Ni3JXR2Iy/ozBrFamMdW/vS/0QpvA9LrHvHK8n5Y683jNQw7WeNd/FrxiymXpCrWh5fHp7RjxcDZKltOCQxpOHu0r12ncIewLlqo+fywtlJIY47PMR1CwhBNseRsRdpSVW1kaHqxiXRrTTTlBWvhW8mwJcs7WzugdphAPhCpdsa5sQPyfeGrWBMdouYeFsjt6582mjjSRDAbDtD5QIRzMPXALeUBD9Bz/bKWZbADKYZVBzL/6DHD+Z3dlbHikPc3cGc8d0NyfzKI0seLgvEdeEvaY9ufYS9Io01WjiCHb7ig8coygHQJEkvfRNJjceKN0gWHpdOIoCGV9+9znnM259fB9HiDmfz0uGdMPewdmxxoU8qBIT/YNfWHmT1aN8FYa2c0AE2xOAYrb9PTcXtOWASenJPuhJTKYFb8hhnBnuSyZAL7IXbmka5haGQTjY00Zh75SZO25IuzKr8GxohokWRFqdoTnSLKQVAGYhX2h78G7YQ6ND1vbxxaKNA1gFKEm/if/PwXpKSve+85rWtbpQJGm6Th5bGkelsXsgQceuALOTW3bKyE4GstXO17uqi07B7VCoQCclR69L8zC5xwsRbRvc627Luas9DRUEJ5HeQ2mH6cZcuqnvtk1sOvATYYK1KPU68heHxw3sMIjrAsMUL7fioYth60sFKnSMYvCFCOMsiOqELEFECh1RJU3h9WsETZcTBy+qb0VIqha91FlEezkMAp5aHaXJHBiXBNfqkCP7yPzWjY3EFYVNX3dvGMD/m56ICyrQE7vnfM3vb6qK0tRAZl3x3GkmQahMhwIo/DX2FkjC7/z4OytMFONlxeQ8W0daplTOTVXrJtyhWroXfH5zSjGEQQo7aburLPvmN3iiXo4rBTpdBknvWRJz3ZhMqvyi583+kotkfKlJ0OwG9+1dzOY6bjLLAkJMuraE+P8JiNKQqWyUUF6/3Esce7P0Odwj6U/mQqMIlK1P4ZxKvsCRdZeNdBffPIqI/jKlbR+uIpk9DmmEfHRXreS1gsnBJLRV3LJajMtLCJzI5Db/nb9gIZH+7swu0VNYRpy4wsUWTbCXvHRm6ZYUV8v18xCC1IZuTJ5IDigBvW2D6ECOKab7UqgwPOoFB3Wimy1zSuT1N0bEoPcWsIsmdQ1Nha246NmThR44vFRFcgLPtj+TVflRjnYE5N2qbcfrFGOIGdq7tlLcL6+Djzz0ZBTnjA4Ek/mg25Xt/TL1GOUJl6w97WROXbczOme282c9begrtCow7/xgMH3y3Jpk4y+BkO5rKQABVcsZB21ceI+zjJGx72cuJlTVopmTjDQzNklqXsJdhWL8QBoZyvSwdh2SNK9WcXow72cxULSQ49Tc6sQ6IoEw26WZGD9ol+5qFGN4DvqldDSUfRoQCxNC8kJGMGyHluUCsryCUCTN65/kyVXrBP5GCaBP6Tj7CBD3cKy4Y1nSd3t+PvYSsMdajjNl2ZVOG9MNZl9FRfY8crUszC1xnZzmnGxS0WC+vXWxT4g+d0HsWdZCZabqASWpcSyvBipA2dSQ6ftJpJRqBoI75UTmwbTTY55NF0sEkVeIEnbj0OpDvhVY7cXTakFZ++FemUuJazrj95sW2fub90Kafp1Z1JFMVf2u6kdTq2nJkCKktjVrkz5ocYkL2VtB+pfyEbthxyCZh1fXgwDwCMq6J/dsVKMlAKy6WmITbrS3J5RbC44pp0Wcw78fCUZhZHGOjEfEWTTsT1PclgI+Z84/47NugrLHRptu0DskTWuHjIVucX30kxSCpuk0hqdAt+sV+YIQCkLrWBmimkSil1AuU0qKhnFphZil9TKEtXGCKrIHCXx2b92hc8Fdipzq3QOcruEYeF/x3EQnF0fW6Pll2IfeOCBBx544IH7wyYQzaQP2ku1qXNwx7VIaNX+kGXvHXzQvCUeNG+JB81b4kHzlnjQvCUeNG+J/z80D06O2+fUbLwraqSX20fT9r3wKBUbwYAiRe1GR2dPwHu0Sz5tpTXNvRXpauXmHlPqADjNdQ/uasW0K3bS1KzMUBoZX1kFUqNcp73AEi+8/KqsVJ9S6WF7n0qt5koVgl1VW3fC2H7ZH17aCWU+TSdR+ZsrIaSbXOq/5lWfyJPruGAfVRWrJmSQlSNqOasw8ZiTGXk0/SN7LhIBfRRhdWgI9+gqB7Q/TBSlu2wPirJGoq2iIIzbBQQezaCz0x1BqXn65EJOi1t1DlN9Stixt5ZcHD2iHVauzUosjyYZh/JFW8+jDpgjvSKQbXiKYfuzpDFHTEUB9kg9d22WBU9UPFH1I9rI0OjTBuR5ISnqsQcXpNUt5Ki3cnxRdQ2iwk0u7fQqUHuK/lya+bfnjzome9JRoHkyr1NtT4ZTYZ5Mppj039kG0hZK5JHCi+2GVEe90V2P4dKMDU77TVIvBSK69fYXhbm+WrfUsVaSkTE7gM16xfY06nFpmtxiolcPHRHEXfUdatq6mixw6sv5Z9XWPLvt9RSbnpFpJEIUEOrtpEl1fB1nnLteiKcvZtBkVczKJLe3D9kiYg0GzXYkdzxjHk2bLLdaJknbYvsMRTL0w88Nhgd+kiNXcaKkwqoVQPNaduQ7oVWvDzubKSbRrEaIolnf3zwJkyy47q8mMG9Mc8fSXNXqpOE9kYkEw56qOfxKV9MkxqZ5hFU4fmnehSblftDjRsZ4xLE396BJuR9U7zr55kGtmeNwE5oHzT0HMcJR4tDkuh9EuXdrbNv03QA/l2iLuTTNID0WnYcYEo8mYUQr8mrFdhz1qnmRVD+2Pt13Dk18ZijXjW/QrN0P6luIqef0Ovoh7DgeZgZNJ+reC9g8y5O4H7VxIlqTPVY40Ls3Q06nmfZtAW3SjFn3o/ZIWl/n6H0BzFSaptSMB8r+HT7N+rAspXIAK2eirY7ixsvL7edOpOnU84L69VFPOW7g4ko6OcCZYkXUUdNxpT1raEioSwm3hc2T9AOZmNYRy1y9yXE/iMpv7u+J68gdplTP9ky9WUcxWVMCOmgy7kc1PHIjCHPI4mgdAzDPCpEwHbYNXQfNVTuaqRy+pgkiHmh7q9c8mmTGmaC2iyZxPyTsfhB11Ag3faKk2vZzFs36cUyA1UXTJYsZGyKPO+dhx80zaSbddq6L5qqpkqq13ZxzJglyHU1yQAYbNXfSDGnjSPRoQ857DNMsmkSJscnATprE/UCfVFapGbrvu32mWTTJWEygSQ6XlIx6zpvhbHBbmsThmTLptbIBTh26N64glp+VzFmjSbKnbJKNE1m2ScBzXP00R9OHI6MJGX9+Fs06U9SenTo669YpcprxR42sTbmdHzRJSqKHJlF5VWDIOhIFnCPfey9AvkruuKYroF8FtZ8zhWZtUgB9l0X5YByaVtuHZmI1QlOmj/51MsoB7aZJnBkSZu/r+4ykfKBjNaINDs16sCq0r9jVzqFcvYIfNVz5MTSJ0aE2X6pgl8ReqlfxRqcIUe5HeScTBFGvLyly6MVJ1K5sdNN0acVcwKN4Yse9XjulV86jmTZnnZOTaew5pp+rHo9DNM8cAWQ2B5dXQK1cyTyabiPIYcQ5h8bZzIuHdrdK5QGaROFRpu3A3cmqZIdK73B/JaKxOA1eQjXm8cT7AUsB7KZJ4hDa6OCzzppQi2pQD82IereOLELAhKsywAFCqVS7aRLfpnlQnNXYGyxDWL6EXvzgG4/FGdRbSIyOzJHTPAhIrQ4E1ozits5d/2Rdt4JAO87Q9lUEACNye4B3CFm8Sqpd7B4q0PV1Ky2VyqSMYuhk3355b+c+fsq1YUVT2wdxHLi33oV08FHm7OxP6CSoy2Qjf+JFDLrLT0tCbeLGpEuFoa7DCTx/ZBBpnZCetef6PqhzOksWIMp2jfwNPBFI67G89rdTXg9mVptt9YrfqHhdWJTXrA7+sJwwUC6l8so/JHMNbOKoXPN7H6+PMvMEpWX/PtLKNZC/t+ihxIgNJVn0HqES+z+B5AM3wf8BTQgptfd2PE8AAAAASUVORK5CYII=;" parent="1" vertex="1">
          <mxGeometry x="118.15" y="438.75" width="43.69" height="80" as="geometry" />
        </mxCell>
        <mxCell id="YtRP0REKgszaAL2Tqm2v-13" value="" style="endArrow=classic;html=1;rounded=0;entryX=0.5;entryY=0;entryDx=0;entryDy=0;exitX=0.475;exitY=1.1;exitDx=0;exitDy=0;exitPerimeter=0;" parent="1" source="YtRP0REKgszaAL2Tqm2v-3" target="YtRP0REKgszaAL2Tqm2v-12" edge="1">
          <mxGeometry width="50" height="50" relative="1" as="geometry">
            <mxPoint x="232.5" y="448.75" as="sourcePoint" />
            <mxPoint x="323.5" y="308.75" as="targetPoint" />
          </mxGeometry>
        </mxCell>
        <mxCell id="YtRP0REKgszaAL2Tqm2v-14" style="edgeStyle=orthogonalEdgeStyle;rounded=0;orthogonalLoop=1;jettySize=auto;html=1;exitX=1;exitY=0.5;exitDx=0;exitDy=0;entryX=0;entryY=0.5;entryDx=0;entryDy=0;" parent="1" source="YtRP0REKgszaAL2Tqm2v-17" target="YtRP0REKgszaAL2Tqm2v-27" edge="1">
          <mxGeometry relative="1" as="geometry">
            <Array as="points">
              <mxPoint x="984.35" y="416" />
              <mxPoint x="984.35" y="296" />
            </Array>
          </mxGeometry>
        </mxCell>
        <mxCell id="YtRP0REKgszaAL2Tqm2v-15" style="edgeStyle=orthogonalEdgeStyle;rounded=0;orthogonalLoop=1;jettySize=auto;html=1;exitX=0;exitY=1;exitDx=0;exitDy=0;" parent="1" source="YtRP0REKgszaAL2Tqm2v-17" edge="1">
          <mxGeometry relative="1" as="geometry">
            <mxPoint x="487.49588235294124" y="467.74823529411765" as="targetPoint" />
          </mxGeometry>
        </mxCell>
        <mxCell id="YtRP0REKgszaAL2Tqm2v-16" style="edgeStyle=orthogonalEdgeStyle;rounded=0;orthogonalLoop=1;jettySize=auto;html=1;exitX=0;exitY=1;exitDx=0;exitDy=0;entryX=-0.009;entryY=0.508;entryDx=0;entryDy=0;entryPerimeter=0;" parent="1" source="YtRP0REKgszaAL2Tqm2v-17" target="YtRP0REKgszaAL2Tqm2v-33" edge="1">
          <mxGeometry relative="1" as="geometry">
            <mxPoint x="489.5" y="453.75" as="targetPoint" />
            <Array as="points">
              <mxPoint x="487.35" y="504" />
            </Array>
          </mxGeometry>
        </mxCell>
        <mxCell id="YtRP0REKgszaAL2Tqm2v-17" value="" style="rounded=0;whiteSpace=wrap;html=1;dashed=1;dashPattern=8 8;" parent="1" vertex="1">
          <mxGeometry x="487.79" y="364.40999999999997" width="406.56" height="103.75" as="geometry" />
        </mxCell>
        <mxCell id="YtRP0REKgszaAL2Tqm2v-18" value="" style="shape=image;verticalLabelPosition=bottom;labelBackgroundColor=default;verticalAlign=top;aspect=fixed;imageAspect=0;image=data:image/png,iVBORw0KGgoAAAANSUhEUgAAAMgAAADICAMAAACahl6sAAAAh1BMVEX///8AAABLS0u7u7v7+/vb29vf39+zs7Obm5vz8/MHBwfU1NTn5+fy8vIhISH29vYSEhLBwcEXFxcqKio8PDxSUlIMDAwzMzPIyMgbGxvm5uaOjo7Ozs5ubm55eXmKiopkZGSmpqZ/f38sLCxmZmZISEg6OjpbW1ufn591dXUkJCRJSUmMjIwxvXuuAAAPbUlEQVR4nO1dfXuqPA/fFEURxDfwBd/AObfd5/t/vkdpCgXaNEBh57muk7+cq21/bZImadq+vf2jf/T/Rf7M/rp8P/7bfG7XP/P1dnMfPM5RvBtbv90zMnnL6GOzf1eRc3sk9uhvhzOLHmslBJHC+2Xp/3ZvFTSePFYkENncfCa73+50hY4JbSbKtLra09/ue07H759GKGBiAvuvkBhvslX0cH+7P07J5U80mUSX5Hx6bH5CecnF6dd5bPdwJP26nyKFYvJmcRLI5m8deX33XSB7U+GTz+94pP2dv/sTLMo/DU/jHrosIeurLN+37zqSO5sE5dkMlt11V0XW17zYiU10qF2Jb3+UVs5N31DsW7H9idu0pt2pyGT3PqHsPsWmV2e9VGDk20Ueux8NdVNH7rUwGSZWAfdSYLFr4/mtQxORFQJTC4AVi8tR+KfzNXIkctW1HU+VaDcQqv6xTVZdpUjg5odRGC86ilAeHa6Q43vXIrkTWlh1Nil2birNO2tkKSj2oBOht76zBpykQ6fIErTJami+/kNuV22MC0eRvFM+KWfT6muZeX9OZLhqCR1zXbypb/lgFGfaatvxdDCykqzBhUlxvGQDlPTlzc3ySbmYqtO6djI6ulaTfEkxo1v8bJna9uv6DDO53JjQw362Rl37jkS5WdPzWevKppnaTQx0rSbl7LVoa0h4HIcTG+laXcqsibCdw+VzHItfcKdTOnJPxWmzyluDFjPrL4claqQrDlwPO6AyrctmUFd7cr27aiBrS0kk+FS/mueABPznrPuP18d6jM7NxH0DHNNK4OpFX/Urek7Bg8/Ji7/H6cefOhVM+Hw0sUqGMhzvQYOanvTBJf7J4Uv2scavl07+6/pkS4EMmlT1JG4PL2b1gYwXwnzWJ7NA3s6cy8cAhGzzTbmn1tC8Mgwkm5PtsCYQLmCThg2bBpJ1CMwWqrl0gJ99NG3XOBBrUKiJCuTIim8aux/GgeRWRkrUuL+fivq8uflsHsibK24AkKNeL2utyUKY/d48kLdj2ADImxu32nDtAshb3ASInjzbVldXG8gyJsx/7v4ajN3tnmIUKm3rmkBSv+db8c9IkhFiDsguZVi5l+AvE/mm9eIjlvbAY0F+uXX8JavJGJAdCF4VifcVKPbTGW2TCg9l/rQUiXRMTIXXdllfSz6oXdmrldAtKgxoHheQcpc0O8QQkKPgbQhIvGgua1RCzjWflqm40kmQnCW/D83jyJF4idSZUtEA3IPiii1B4g8qv21okuM4AIl/qQXjRcGoiuP9/VxtcFT0/aMvM4HbMo4Uid0kQ8g5+/698q0ESSc0k4x8WJ19Gs0r6SzvfYUCZThMUx9IZvXy/X4PyXSJmmP94GiPxHvx+gMp0Cx1sQG10q9ewtZr9S7hsS8czX3sJ1NlC8FcWWbWG5BG0dUX+ZHA/WrPQJWJaZy02ToHW9ZLv2jyq+d1TDWmWpI2CvXan32UF3hrUvJcHLW13w8SLY5dWqwkzHG1b4j26wOJPirIfN5bEYekphUS/+oeCSG6GbGShfi6VH6xjYyukVByRNguSdHm591yRMPvpqohrUV9PKQnHG9vzGjei1+xXRTndGBbXOCpoluPXSIh5uxARELU0u42hfHmMgiwY4eH0kadIaHmHnmstwXespbxK5cIdtqWgAQPl50U/WhLC3IEkfHWWvIf5uLM+d4WauzMCKGSZkQ2TWDcq1veoAfOXI0hiyIHrSdnHZzOSXJ6fJLdMWrgHHZwqqr6ktUTs0+IBpbHQ8u0TZaCDTGunk6Q0p0IBMa7uk/Mvt8+P1l7BdaMCF5JeKoOrTe56X9I9kRYuGtRtreAs9JstXTZdNQJF7EeRqIQWlsPZUMEArui5c1zWPPT3lvPpSVEkiS0nRmoB8GK0MDwi4j59j7j1LK+ZuK7hb8OR8TYkic15BTiiRojnU9DTY9gXS455i6rg+Tza2JYxWw3a7QbLo8FRvOveAUSlSollipTcmdjVgVF943xXtzyRF1reLqBploF4qGfBK+CGEIB3VmUxocMnZzwXtyyer2kaMc4wZFYx17aboVgRAtWocXWK9KyigZ553w+pEIdZEyDmzhEDcyiDAVpP0rAKQiNCDmcN8dyic71QDV2LRAxFsTquIpfsWXdoeRFoFzBF9Gh0iLhfXSxkCWRt9i0FtYdpohI1gGmPLntbyPGSABLMWrm0FLEmN24Er9iA0jRFi7SPDcGhqhRxRU/psVp6fCwoAl5DRBApMgYNpCwQzPWrN3QyzECl2Y5gtoS1gzmNypFxBvl9KFuPWQrhaVbuR2wQR7qIqHQImLusMJCahyTmq28uI80WCBQ3pG24I2JCTWQPFdySsVMZ1aLQukhc1AkNsWe1ijMmv7Ul0xJ6f+yuRdEm8m6wu+n+nYwoRrzI6U5m5KJviQjlSXO9EW+jIMmUswgtTU2MBYpvmKL7epJ5eMx6zO3f2GxVhzLorbGxkFn4zMCS526/6UCwmQ7j1wxleooShMbcyyhbh2FrDBV/FRAGBvnSzvjVZXpS2zsVmuQ2fTpFRwO5E/631zbMmCf7YAwbvGJpZliofGhGggbiDxIx1wt1WpKbIwFL6lrA9M0o5ZAGCvlJxfKMtMISFJrjJmmoaotHEguEwyIyucnNsaYhRa646NGZUQqkG+h7l6BTFsCKcsIi9m1lBHGWktiacZaB31BFEh5J7GsjhsBqSe+9VSDCgibgVz9MkfXiPq1iPsNrGtURsRX9nwGyqzWCAj8nJgacRQabg6EORi5lorTvxftgIBb9q0vmbelCznqgLDNtWv2Nyj/dkAglrQjlYW2qfvcKiDMj8r3EcH6Vbgv1F028NhJSZrM1NIEX/VAmMuQ+1FVJ14kas4cWAoUbwn0zEVfkpHiwJpf/i98oYgzUly+lFhMwSd4VtA0Zf/qRXNFVAS0txAEw/faEuKcXFnxWFsQll6aOL07d1UePGhvIczPogCq4xsFkiWq8xYhcKPLAQ5H2nIrdQcEYtpb1LZlfYwQZt5CGMbTKCMIJWDRcNqmFVsPxYVclv2koCmmxIBb8RxnHr3BgkF1Emuuwjdx+g0pGI/mCvDB2SFIOAOj2o10OsSq5sRWxV9NqM7koz1TrSbZhT0jLI5HO60OvClGscDUIx3bx+1brsI9eZw1i376qOqlnVeAOS0cMmSmHi2hBTULF9mqalfjKc6ZM6+Fazba9ggbq6JkM+tNEcUuEW6y7vPgeVwUp/05V/i4tUjSOtxSK0as2SzRpN3FjS/xXOw4Cn7S0qvNWUiwsTTxfZrOgshFUR5q7PSg+xovKt2UZLljtzhALroRqkmwyilmpUuBXvreG8G0wK8pW+qMsSupF+CMlBXcf+m3xMQcbdrZTT21nj7eS0s985n+LisoWB1oGYWEKFwg782UcDSOmFMDFmPZZAchIV4AQ8kEHFQvOZ19UzaNiLmATFLDin5ijHulVUKLXi0ek/xCadf+prkfxC5A0kl1+phmXxFPKgZYV0Ry1vfg8RjQczND4i2AwN5VFlKwnIJ0W+nNiXpznoqzuBK4EuuhRX3qUyXXUkGwKsvOtT3qVLTrbEaICcygZWUMBLxFumGnOxxUJMxN2MuGHXiLck9GlzhoSEDU5ZYIWKR6rdEtDhIS0JryNJUdhrJHHIRwDkQUVTYA84SkfCdQ9TR7/0iAeVQWHXhMuJnSBw4dEvC2lf4X6GbUP+sHh8ZrB4dIPeJgYSOru9XTwVC0EzAhP2oZgBKIV/JXnJ6GCcFOK0JsQ+0W/Q2np6EPqhB9SmCeI1NCTXprS446IgQeP34kAjwmNYO6PV0xoBbkmBVY46sETMlNXerQ5oUkAzimELrQ2YQwb4gg9YEEYRvwH7RhErBTVkgUQoZk/93wYOJGFiRDcPADkHrHHswxbGmtItmP3maaqJuUVl+ycB8mxiDEhOMMPNEbiyOXz4Hv0+0MSdQap/CcznsZCbY+gBWFMUxGsIm7xbRCEcmeb8vE1G3aFMY3j4wWkWA4OGORolZcLfzBColIxOuZbSqD7S/5oBZi2hgOvqlCPDwas9IOuv2VIyldMz06680xJyjFuXMk6C0JkIobUu/WBnlHmSs7my+5LnuHhuIWj7jC4RaPk6EbCjwpinwf9QFcQHwDjJ3NV1z7fYjlIbz9n6N0eAAJioMfZqpx+ybfcMW3S0bPcf9R6vOaF06+HqIIUb7ywcxb1bmhEUR2r/nNcafmvtpXgLpH/OpULke17sF3wQ9sft2v8UtZ+a54zQvqeDca36lkGgivrvbQ8kMHjW6sF1s2A4Tf9Ktj9ipx0Wp8s6NRIFzXOw2eljuAsgsb3sJsEki2+jbiD74rNW/2/pJBIJm13fCGPZ7hsG50ta45IJl3jV3yh1J2eX6T+6eNAXG5vXNvvBZkmS+fDZCYAuLyHJ5Gwwk03TZHIt/4rc0dY85Xt1bXkmfTuq0tJ/Lgat0XJ448wfWn5ZNvmcJY165oVs3rCuu+dzcMDeEQrgTb139OxR2XqK60fjnGcAiLkfqK+K4oSwG/GblbfZwFf5o+RdKM8qyujaHnBzKJ7/Wxt12W1TUw1qqbJQP19/xe/u7tyeALjPkdA4t+Xnzzco/f8MOeeWr/tc1bHkSyM7YKjb8kmWnC9x9Tz00DeZePSUEK3DzKte7ggdJc+N5PJifFeynFTwFJnJ9WCTp5tVlIcp0bXFKuRc1+yKXD6UrdC6+RCtcytSTIjoEgxzTJ00PW7V/XVNIuNwSdsxH+mkKN6eBbE+EM1KnTNUs8g7CKDDQFG2k/r6rE/RX1nS6myBbSqPeTtmsVz+l+dnsopuCeOnybnZP4wvX7PGrVogXGz4f1Jcbvt508/V6lnehohOcWFjZoj1XhsrpF1Ner0M/VsXAwUZJyTSO+kVbYED518ri8irxzofH9uZGqlCSmK1LqOyT3VNxYX1ffdNJR9djb3bD1Q6PDRylHYH6y6yjkyt3H//3WG8RvbuWVJGdzRp5/K1LpOMyjJ1Ulp2kkSRJYB4k90sp/4Sz74tzvg+kyWj7kWSjzzTWJ4uFuNhofXPcwLisjIRfPCQwESQyQNyHdkH0vQRGzh52P3rWVnA4RIbOulK+wLM7koPdok4Lc+KHLpC2pASsqxiKD/lZ0DVnHKMCO5lUN/10hraDfuJmOxnESyLNRpJns41MuK403crqj6cyOTsFmLdpkKgfcu/BZbL4X3gN5T807mz11MOJQWnEqLGEHIZPeaRn8DH51af9H/0hB/wPmB9ePq10UwQAAAABJRU5ErkJggg==;" parent="1" vertex="1">
          <mxGeometry x="578.73" y="386.2900000000001" width="60" height="60" as="geometry" />
        </mxCell>
        <mxCell id="YtRP0REKgszaAL2Tqm2v-19" value="Build" style="text;align=center;verticalAlign=bottom;resizable=0;points=[];autosize=1;strokeColor=none;fillColor=none;fontStyle=1;fontFamily=Helvetica;labelBackgroundColor=none;labelBorderColor=none;html=1;imageAspect=1;" parent="1" vertex="1">
          <mxGeometry x="583.7300000000001" y="438.1600000000001" width="50" height="30" as="geometry" />
        </mxCell>
        <mxCell id="YtRP0REKgszaAL2Tqm2v-20" value="Terraform Create" style="text;align=center;verticalAlign=bottom;resizable=0;points=[];autosize=1;strokeColor=none;fillColor=none;fontStyle=1;fontFamily=Helvetica;labelBackgroundColor=none;labelBorderColor=none;html=1;imageAspect=1;" parent="1" vertex="1">
          <mxGeometry x="529.3399999999999" y="210" width="120" height="30" as="geometry" />
        </mxCell>
        <mxCell id="YtRP0REKgszaAL2Tqm2v-21" value="CI/CD Pipeline" style="text;html=1;align=center;verticalAlign=middle;resizable=0;points=[];autosize=1;strokeColor=none;fillColor=#000000;fontColor=#FFFFFF;" parent="1" vertex="1">
          <mxGeometry x="884.35" y="281.25" width="100" height="30" as="geometry" />
        </mxCell>
        <mxCell id="YtRP0REKgszaAL2Tqm2v-22" value="" style="shape=image;verticalLabelPosition=bottom;labelBackgroundColor=default;verticalAlign=top;aspect=fixed;imageAspect=0;image=data:image/png,iVBORw0KGgoAAAANSUhEUgAAAMgAAADICAMAAACahl6sAAAAhFBMVEX///8AAAD5+fn8/PwWFhYICAjy8vLr6+sSEhILCwv19fXZ2dkiIiK+vr5GRkYdHR1cXFyvr6+QkJCZmZk2Njbi4uKgoKBSUlIlJSW1tbU9PT3IyMhycnKqqqopKSlqamrS0tKCgoJvb2+FhYU3NzdNTU1ERETMzMxiYmJ6enpZWVmcnJzjobTzAAAPhElEQVR4nO1d7XaiPBDeBQQVFUXwW5RarXbv//7eZkKAhEkgEHDfc/b5VS1Chsx3JpNfv/7hH/5XcK+rdfqxXByiJJnNkiQ6LJYf6Xp1dd89ssbw5uEyGv+WYhw9w7n37lGqYR3DrSMnoQxnGx6td48Xx/X2GDUjgmH0CK/vHrUAa38JJIzkzHZJsgscCbMFl7n97tEz2POLOMpJtD2F+6Nflmzb9Y+r8LSNJiKtfwct8YufC2ebrnzlwGx/lQqiFLziocYrGdN5UR7P7rJpPCB/c9mVf7tYvW9a3HBWktx76OvewA/vJf0wC6d9jLIW3quQjNH23HIQ0/O2oGX8Gt6+eK9CZh/nTuba3TwKLTEwKW6ak+G8tDmqCv+VC/8kHc6Jsdf5Y6OzIfNsbZL81fwZSOzn+SMXc6P3zTVgdDR5Xwm8b/a4+5fpex9zUpa9i8qGqapHL2/teGAK7NzH7XPE7JUl+74esWdmctGjsT9n0zEOe/TArXDS86S4y4EYOBfDZy+a+CvzR2a9cVWBfeaIzozrk1+//mSexMcg9sq9ZL7PxvCNrWdmrAaYDop9ZnQvRsXR+8xMx4CekHenzzwYfKafiUdo7pZNENKn7gw4cxRzqnWdIRwH/sGUvcaGHnymYn54QzQaU5YerUzcbJMZj7dkoazMpBhQXmt6p1f3O7WC/aLPX3e9USZwf0wMqh3WRhTN2iCPtkUmo53mhMrHaDAriGM/6ionZ7jBxGgc2AZz6g+35os5vInR2+nIR9LSnvjjv4GvKCh3jVvZeG/WbT5bwYqP+02Yni7P5ff38nn5eN2oJ0+5fNbC77I+B9W79vWcLj+xVaKUXkD150HfLD+Hs4Px5hLJ14jYEKhlvOje/A/87NvwkFF4OykRBKfsMvu7jRL+GrWcSC3Ea+D5WElJPgdWBMpHK/p1QdCdXv3dKcldJ5SSREHIM/9FDCI004m1ab6kz/jDP9Egh1LiKSgpCPk1F7+oA9V1PcaDX9t8nAlMu4KS8ripC9s43xXDy7obHz7D9V4e6K6GEm4C4JfjpiwPeVGnrzxD/BRGWkMJp3A9R+MdU5e3J8/EDsXV6R/xpZREOCEf3O/3zZnLG1d/bgxXdLRKSgSbDJm7cRN2Absz62eBNZQYcBUlKX8LF7Kpy/pnzftjLHeLDRQQACUuRomoPClz1ZoGO2lIsD58ldkLwEN3P6v/qfgkwDJR3TojOJmNWFAXR0UNl4qSShzhTVD6eLgONpsmsK+rgcooOYjfV5kIzKKj9lRSck3Sg6+4qq/lcnBKqlGhBU5mWvm+BDprPUh67XwUlEwFShD9CfKu5H8IXh7m6fiqWkGUkitQ8ih/N8buB7Qqgj46Iead3rhhoSNGSYLdEGzERD4lMCHmnUVL4nwgGFNKSlVgW/SWC+WUuKAgza8/il5iPSVWQckJveURrpW5H6DWFsbp2GjQ8TO6L54SSRoH/i8xEzbEt8bzin4zQRcpYTGLRGJBSma4eYe4MDJNh91cQBglxzIlMrsH/g6ePYTZMl42kUoHLDUtGSXgYs5k9wWGReUgJv9xTBv1Kz7c+8b/eVK8r1QMAyYFJdLMmgUqHQt6QfeazizijLUsnj8NMVIoJfZW5fadyIWIn2JDwGJsSTtDiI2S5+wYcd2zNRn7W2GdfXJdUBV3UAPmvBMPHLYY0VjUUpQwXVQvYpQ8FawOfkpVyUIsbErUvdcElOh3dYTZao0Xfj/uL/r3FIu46tfJQNwrSW2LsOrITOWP+5pQz+KIDBC42nplOuABvOxjGqF2pcwlv3JE3gLPGPdrNEGLaWGAiKQHhFdKnjo1fyeEkHpK7hhvGeOseRH0Y77JjfyjzHGQCIwxQmpX/cCCi7xFdNaoew6IVfGRCbGwvTFE8c65byAlWglwm8wJ8JZgMa/kd90deFZMC4O7IUODx/JZIRDMFCWkzvFbsHdWAPR915yDlyenyc1dzNLBuxL+QRjojNIR1DwQGfWjSps2VvkAYUJe2NCI7FjCd6Q2Y45dXOtngE3k/C2LcNuuExnWR/78EREED/XeMUJIxLFHCal9syTwmJRtJih87QXTMuKSqoUboRqVug6CEiCCgAZfh9qnQuxZDmmB2boUdx1L6QXFhPx2yMUX7quxJSO7vlYB6C8LCeiRDkuf57JphglBJeQH11+iIQdTjzkpkvivDBCSshl32MtqB87HVU1IlksoK+aITMgXdmmTAi0y8JJu80TC9MC/fbnKIqDJqOLfEXzG1huCJjEeKPwivwXKT5lLVUHgb7Ah8oQDXbHYU16avGC0qM5qVDGXkisLswms0bYMSHj53/n9JcgG+BW+bnvqE6GJyKTRRiswpIW0L9mbbAHRESG3mSqXQkTXFK/gaJZJB2kvFrCJDZi022omGgCQNCzALeHFcf8eTQw39PtsogA/84/kBbZLaM3FkIhYJ1uyJTxHcs7f2hVfV5w0tQVE1nJ96+avUhexyEPg+OAeIAfnuZlfv1YvWfaucW0sqC0WfoAPjyeL1bAqCRBQINq5xQqaBxTg4V2zDyvyoY0PX7EWwJ+4J6uDoPliLIgjUwzr8gcNVEcM7pp8Nb0hdMpiYRIYI6bkg/46lVVRm5BwxeNvHeh4r+C337IPwGf6ZiStjACcA6l30hRaaVswJEy+wR5qp7TiSjJqRFjbUtcF1EMvLAI3kRVqQAyvSweyoCbNAelAo9CPwCa/YUqO5GLQVWAV3CgQPcMju1kHXHQdDMIALJQker9VNGLF1/l5fftY3j9nY7qQ7HejQ39Zgzg4zCshZl66MtQYNthXPFRviDb7QAOBkG4plBxW09IADEGbUgViA1hRwey3pMBAH6sOdCxaFVeV2ckcIXZ7UR+1zHOWCTHHWmlrOqJry0eWWYsQUpdmbYTaQEQ6HbfWHUTKwt5a/YrAE5/1WHTIOpfVbyuDiAFZMmyAoNP6UtkgtnNRqnA1W7cBJmmnGgXORWnnNFbxpwUdl44FrZzT2NKNr+ChHjOC785P5dz4lHzoXgCoHVHdr52fyQdWEOp2329Yk82qkMHWNawuO6C4ULd18oEHVlMixfaa/creJF34i0s+tE4HcdDhrCUbu31OdEMpHlw6qH2CrozGnDW6MF4iZND1lNbgEnQdUqYlNNRZkxNTuDZtctZtyw2XMu2SxC7QKFh3bsxeWWu6qbnbzgghiQ15hM4qvZ6SaMOs+DRk/uVNec86CMsK7RZ6Nocn/zbVlIyWuany0jxnNOtWRCks9LRaeiPWR9AQijT87pYT7X+U0i8dd0ZANrBYemuzGArGRwzHJJSMlsWzjlxquKuuFBZDWyxPH8HTrWRvMEqide6Q2iveanbeAyUsT9MEuo60034QiyqDV3buREWKh2viCujaSadSMKBbwhGDzokw15+jxDldi4d+VNasOxeIVUo4NItqXLBkO5wv8l1I42fRWdleITWx3bcDV4pq9MqcLDDijowVgZLJclXiuzOalei+lwvKnDhLrlN4RpsvTOQbZvbBc89LT4rR0b18vVp4plUKeNJ/nZhD+ejeQxYZtUZxJh2UoBnmN+WOJkQrt+nVIgIpzmxeLkvHJHhIhDhVrFxNeFUq5FsAK5dtXMBMSx0EBQexssodr9RjGemshBbHg7tV7zBcwRZsefamzqKqWKESPRrZTYCWlNuNivypIRT6vlBm26pkdyrQ0bmjHAFe5E95q8a40wYTCS+mdEnkrnbHR+bpkGy7aLIRhm4yCPgYmxpyxOviEJinQ7YRpn5rkr1F1A2l41Gn70p1NiNDu21kW5PqN4tdEHVDldihVm8XmQlT/Tylm8Vqt+/dEHVzBCX2WZ8AzxccElONleTb96idlIo71bG8P0DpELx5HzPZrPj6aaxNCYwH90VA/cgWRalt5jnva1xVYkSQEGFOKVsZ3Heq2OKq2nRMDeGSE60rQgdECJPq78FBuxvs1wUvdiexXYpt4JeqjvWBSXf84ODNI8t4P0ZzZ7SVxEOlx+keHFSrvCqyQOmY8XTQ1n3IFvR5YLbVvHpjPtXA6JR4D6E3NXVWROOICBKFa3gz80OmeylUzSt4doxpkzreftIUUadVgoaoa15Bp6R+Iw1OB00R3Yc4POSgnpDGDV6o8yg4K5S4aIgDg8BQjJVmGLTOroahMzr44Ja2lJKkiMzCglemTuM3aYJE+3lNeFGqSREZBThLNU2Q6KK/SoyyVy/QYUPRgSJFZBBxk7ZUWW8DRQ9T2m1JjLlpse8wrYEhmqhtFFbXuo0GV+K+ZjRF1BNoRNogGAAmCSQcmHWQEehAU0Q9gTbTa2KsaHtDPKOddV0RnE40RdQXwOtrlv4+S5mL9lwRcznUC1ZmUcxBo+GkvAUo3joYTRH1Bb02q5KrqYoVfWc0RdQXbHjHjZuy4m1y7Sf2rYWliHrDDRNRFeiYeVtxQanDUkS9QbtxMdZK+oSqWCxF1Bsoy++03FLa3PuzkGDaq0WMmbAUUW+Y0ubeV71f0ezPd65TQe2JNV1zjNv6go3q/npc+Ckg/X0qKyA3bJb6AuVt/aIoqo4KZWvtq+4N4bflMIaw/ZEE7JAI5VTOL+FAdFCL0C5u+6uO7QA62h3bwbIi//+DVJjr//8/2uYvO2yok7nKjn8ayOThyKoNOh7pkhVfGFr2awMzB3IVR6S96dBx+2RkPgiy2tHvtxxaN80qII3wdlYTF73jGEG6GmzqiDZ2sOPgajh7sLGF4DcdtWlnvWPMHbX543dlOz6HPPyUHQ9t8vDTH983W18e7jha1tHuw7SS2WR1MZdhDwjuwRSzI5uDASZllRXh7K593N1lXR6+e5aUmJXPm6uTEMCONZ/0eqz5jR1r3uPBfzHrjWl29b+MFaufN1kngYBNyu9DL+Zxznb2O7073B47bv73wvhpEse8rOs5hME65uVwC6Ozss/JiAY65dre5L02ko0hsbc2ec/JYDNcyOAWu72ckwFXiJ3FR3TVbRCLm8N7FdtaDptOz3Y3Re+OSTosGQTeq+jbNLqfWw7A3dyLmuBxOqBTWsK0vGdqtAi1ecwPF6XK5t16iDoWHMKOo9lz05gYf/Pkto7dV2/KCjDEKb/tyLmnZ185Jts/v+58j6EgfUMcXYE9v4itj0bJ/SNcHX2vRJHt+cdV+HFPxA1+zmX+5sko8EOLuMWQya8T7JJkFziSjm6zv4iKDD+Sq3kaz6SFfhgG1le4bdg+KNiGX3/bVAjw5uETPQ07g/P5DOfvsRdtML3u17fT8n6IomQ2S6LocF+ebuv99X224h/+oRX+Aw0rx4i7irF4AAAAAElFTkSuQmCC;" parent="1" vertex="1">
          <mxGeometry x="739.88" y="386.28999999999996" width="60" height="60" as="geometry" />
        </mxCell>
        <mxCell id="YtRP0REKgszaAL2Tqm2v-23" value="Deploy" style="text;align=center;verticalAlign=bottom;resizable=0;points=[];autosize=1;strokeColor=none;fillColor=none;fontStyle=1;fontFamily=Helvetica;labelBackgroundColor=none;labelBorderColor=none;html=1;imageAspect=1;horizontal=1;" parent="1" vertex="1">
          <mxGeometry x="739.88" y="438.15999999999997" width="60" height="30" as="geometry" />
        </mxCell>
        <mxCell id="YtRP0REKgszaAL2Tqm2v-24" value="" style="shape=image;verticalLabelPosition=bottom;labelBackgroundColor=default;verticalAlign=top;aspect=fixed;imageAspect=0;image=data:image/jpeg,/9j/4AAQSkZJRgABAQAAAQABAAD/2wCEAAkGBxMTEBUTExIVFhUVFhUWFRgXFhUXFRUVFRUYGBUXGBUYHSggGBolHRcVITEhJSorLi4uFyAzODMtNygtLisBCgoKDg0OGhAQGy0lHyUtLS0tLS0tLS0wLS0tLTUtLS0tLS0tLS0tLS0tLS0tLS0tLS0tLS0tLS0tLS0tLS0tLf/AABEIAOEA4QMBIgACEQEDEQH/xAAcAAABBAMBAAAAAAAAAAAAAAAAAQIDBwUGCAT/xABLEAABAwEDCAYDDAgFBQEAAAABAAIDEQQhMQUGBxJBUWFxEyKBkaHRMrHBFCM0QlJicnOCwuHwCDM1Q5KisrMkY3SDtBYlU1TxFf/EABsBAAIDAQEBAAAAAAAAAAAAAAABAgMEBQYH/8QALxEAAgEDAwIDBwQDAAAAAAAAAAECAwQREiExBUEiUWETMnGRodHhM4Gx8BQjwf/aAAwDAQACEQMRAD8AvFCEIAEIQgAQhCABCFrOeOfNjycys8lZCKsiZQyu3XfFHE0CANmWOytl2zWZutaLRFEPnvaCeQxPYucc6tLNutZOpI6zQklrWQuo+lLy6TEnDCgWiWhznkvLi8nFxJLvtVvVihnuB0XljTdk+MlsDZbQRW9o6Nl3zn3nuWsWzT/J+6sLBuL5S7wa0etUzZ/S51HeCFGrNCwLJZ1r045Sd6DbPGNlI3OPe5x9Swtp0n5XlrW2uaNuo2NgHa1tVp4ZS93YNp8gmvfXgNgGCelIDNT512x7hr2y0uvFSZpO8DWoFkMn6RsqwGjbbKaXUkIlF31gJWpqSbEHeAe3A+IT5QZLRybp2t7P1sMEo4B0bu8EjwW55v6crJK4NtML7PW7XB6VgN2NAHAX40K53UsmDRwr33+qiSpphk7Syfb4p4xJDIyRhwcxwcD2helcZ5CzgtNjk6SzTvidt1T1XfSYbndoVw5padGmjMoRapw6aIEt5uixH2a8lCVFrgZdaF4ckZXgtUYks8zJWHaxwNOBGIPAr3KkAQhCABCEIAEIQgAQhCABCEIAEIQgAXmyjlCKCN0s0jY423uc4gAdp28FhNIGdjMm2J07gHPPVhYT6chw+yMTwC5gzpzvtNvk17S8up6LKkRM+iwXDmanipJeYFl596bnO1ocnDVbgZ3jrH6th9Hm6/gFTloklle6R5e97jVznEuJO8uOKZ0x2UHID14p7jT0jV243gc+PBSSTGD4SGgGgvJvI4eSYxhBqCP4h5p0zqhtdxP8xUSm4rIj1QtBcMAajAihv3bCmPbqGlKnecBy3802K4F3YOZ/CvgpHyG47HYg4VFx8+1Wx3QHnJQpdUHC47jh2HzUb2EYhJpoQikxZyPgfxHio1JDiRvBHbiPEBJAMaKmm9STGrj4chcEln9Ku4E9wu8aJqnHgAQhCkI9uScrz2aQSWeZ8TxtYSK8CMHDgVbmaWnRwoy3xaww6aIUdzdHgebaclTPRb7uePdil1gMBXifLD1pSgnyM7HyDnBZrZH0lmmZK26uqes2uAcw3tPMLJrjjNrOW0WK0ttED6OFxB9B7NrHN2t9WxdRZi55wZSs/SRHVkbQSxE9aN3tadjvbULNUp6d1wM2VCEKoAQhCABCEIAEIQgATJpQ1pc4gNaCXE3AACpJO5PVMafc9+jZ/wDnQO67wHWgj4rDe2Pm7E8Kb00BWmlHPJ2Ura57SegiqyBuHVre8je4ivKg2LT2tJNAlYwk3fgOJUhcAKN7TtPkFNLIBUNwvO/dy81GhCmIkm+L9EeJJ9qjUk2PY3+kIgF9dgv8vGieNxiy3Ubux5nH2DsSx3tI3Xj1H2dyiJTo3UIPfy2qxCBObIRdiNxw/BI9tCRuSKQD9UHC47jh2HzTCC07iL0JzZCLsRuOH4JYAe5tNbjQDket7Ao2tJwFV6nloDQQcK088FG6QG7rU3CgHcrNOBsZqAYnsF/jh60dLT0RT196Srdx/iHkl1m/JP8AF+CBEaFJrj5I73eaNcfJb/N5pYAjWSzey7PYrQ20Wd+q9v8AC5u1rh8Zp3e1eNhJwa3uu7yl1gMaHg1rfWR5p6QOrswM94Mpwa7OpKwDpoiesw7x8ph2H2raVx3m5l+WyWqOeGjXRkmgu1xTrMdTFpFy6vzYy7FbbLHaYT1Xi8bWOHpMdxBWSrS07rgZlUIQqQBCEIAEITZHhoLiQAASSbgAMSSgDX8/M6Y8nWJ9ofQu9GJlfTlI6o5DE8AVyTbbVJaJXzSvLnvcXPedrnGp/wDi2/SnnecpWwuDiLNDVkA+Xf1pKb3EY7AAtJe+vADAblao+YCvfsFw8TxKYhCkIEK/swcwrFlHINm6ePVl9/DZo6NlH+IkoCadccHV4UVfZ66KrbYNaRo90QC/pIwdZo3yR3lu28VHEKKkBo1o9I9g7gldc0DfefZ7T2pXDWkN91TfwGJ7kyR1ST+eAVq5bGxqEITIkr72g9h7MPD1JidDfVu8Xcxf5jtTVMYJ8Q2nAeJ2D87kwBPlNOrux4nb5JoBZDUA8/WUxPf6LeR9ZR0R23c/LFSAYhorgn1aN553DuxSOlOGA3C4figBejpiQOGJ7ka4GA7Tf4YetRpwYdx7kAD3k4lIn9E75J7ijoHfJPcjDAWz+kO7vuW/aIc9/cFq6OV3+GnIElcI34Nk5bDwv2LQ4YHawu2jdsTnQGuzvHmpadUcMaR2o01FRglVUaDc8nTxGwzurLC3WidWutCCBqk721A4im4q11z5wcHhgCEIUABVLp4zsdFCLDF6UzQ6Y1ApCSQGVr8YtNeAptutpcn6Tcue6MsWmQGrGv6Fv0YupUfaDj2q2kk5bganKx2JB9nZS5RL0uYanVuIxA28W8OCj6Y7aHmAfHFWuIESFLrN2tpyPnVJqN2OpzHtFUtLEdRaEP2FZuc//IkW9rRdCI/7HZuc/wDyJFvSzvkZX+emiex23WkiHuad1avjaNR5JqdeK4Ek4uFDvJVB53ZjW3Jzv8RF73WjZmVdE77VOqeDgDcuvFHPC17Sx7Q5rgQ5rgC1wOIINxClGbQHEaF0Bn7oXs72PnsTuge0Oe6J1TC6lSdXbGeF4wAAVAujIAcQQHV1TQ0NMaHbRXRmmIRpoa7k+UX3YG8cio1PGzWAAxBp2G/z71ZHyASO4a3YOe09ntSMjrebhv8AIbVK8AHfS4Ddz47aKNzicVZgeCdklB1QLt95pz5+tRmTgO4JrHUNUsjaHhiOSsQxekPDuHkjpnb0xCYD+ld8o95SdId57ykASvYQS0ggg0IIoQRcQRvRkBCU5kdb8Bv8t6e2OmOO7z8kOdVSUSSiOaaXC4eJ5p8orXeK9oHkom4qV56x5n1qaRLBnNH+W/ceUIJyaNa8Nk+redR/cHV+yuswVxhq4kYEEHgaV9i6k0X5c915LgkJq9jeik368fVqeY1XfaWK7hxIhI2tCELCRMTnZlUWWw2i0H91E9w4upRg7XEBcbOcSSSak3k7ycV0T+kRljo8nx2cHrWiUEj/AC4usf5jGudVfTWwmSg1HFvq/D84JSNbg7wd5FRsdQ1TpG0N2BvHJXLdARkIUtQ6447D7D5qNzSDQpNAdSaEP2FZuc//ACJFva0TQh+wrNzn/wCRIt7WR8jBCEJAeTK/weX6uT+kqs9DWR4LXkLorREyVhnlucMDRt7SL2u4ihVmZX+Dy/Vyf0laDoA/Y4+vl+6pr3WBqOemhaWOsuT39K3HoX6okH0HmgeOBobsXFVPJHJE57JGOY9pDXMe3Vc0m8gtIBH4rs9YHOrM+yZQZq2iIFwFGyN6srPov9hqOCtp12n4hpnI5a08PEeY8U18ZHLeLx3qxs89EdrsmtJBW0wi/qN9+YPnRj0qb2130CrtrqYFbIuM1lD2ZEpGXim0Xj2j2pxocRTiPJZfNrNO126TVssReARrSejFH9N5uB20vJ2Aofh3YjBrb8zdHNtygQ5jOigOM0gIYRt1G4yHHC668hXBmboeslmIltVLTNjQikDDwjPp83VGFwVlNFBQYBZqlx2iI07MzRtYsn0e1nSzj99IAXA/5bcI9uF995K5wzlNLdaqY+6J79v612G5dgrj3Ob4dav9RP8A3XJ2rbk2yUeTGIQhbiwUKSTE8yolO9tXkDefWpRAfY4yXcNqun9H6fV91wgnV96kaK3A9drz2jU7gqos8Oq2nfzVg6EJ9XKb21ufA8U4tfG4eActNzbJWsm+eScoeAvhCELzRmOaNPmWOmyqYgerZo2x/bd13/1NH2VWyzed9o1so2tzhrE2me8k1Pvjqbd1FiKt3HvHktaWEIjUsd41e1vPaO32JKN3kdg805kNT1XeDvYE0BGntdUUdhsO0fhwU0tn2kgA40vv20SCgwHab/DBWqDGkyzNGulM5PhZZbREH2dpdqPj/Ws13F7iQTR7au4EX44K+MhZds1si6WzTMlZt1Te040c03sPAgFcgRvJBBv23+K9OSsozWaUTWaZ8Ug2tNKjcdjhwdcoTtcrMSWk7IQqbzN02McRFlFnRuuAmYCWH6ceLebai/ABW9Y7XHKxskT2vY4Va5jg5rhvDhcVjlFxeGRIsr/B5fq5P6StB0AfscfXy/dW/ZX+Dy/Vyf0laDoA/Y4+vl+6mvdYFkoQhQAFpeemjWxZQ1nlvQzn99GACT/mMwk7aHiFuiE4ycXlAc9aHNH1nt7JLTaXOc2KXoxEOq1xDGuq9wvI62AphicFf1isccMbY4mNjY0Ua1jQ1oHABVl+jzGRYLRX/wBk/wBqNWora7lraYMEIQqQBcjZyWFxttpIpfaJ/wC65dcrlfL3wy0fXzf3XLq9LoxqSlq9C2lFNmtusT93iFG6zvHxT3LNoXYdjHs2XezRgS0jYVlLJBeXHaTTlvXtiZrEDevZPYx8W7hsVlGy0y1ZyONPG54Fs+jCfUyvZjW5xew8daJ4HjRay5pBoVkM3LR0dtsslaatohJ5dI2vhVW3EdVKUfRkpLZnUiEIXiTCcaZwsrbLQSQKzzG833yO2C9Y/UaNpPh4rbtKmTOhytamAUq/pW8WygPNORc78haeugorGQH642NA8T4oc8nEn88ExS2cdau6/uw8aKSXYCetLtgFD7fGqjeynLYUqc07Dh6jvWjBbgjY6hqpXi/hs5KJzaGikYat5eo/j60RYkFdhvH57lmc2M57XYJNeyTFoJq6J3Wif9JpuJupUUO4rDIROnGXI2ky/wDIOl6y2uCSK0j3NOY3jrH3l51T6Mh9E8HUxABK9egEf9oH18v3VzqTsN4/OBVm6Ordlax2P3TZYhabEZHiSC8yMc2ms9tBrCt17dYY1asVW30rYrccHQqFquZ2f9jygAI3mObbDJQP46pweLvinDEBbUscouLwxAhCEgKx0B/AZ/8AUn+1GrOVY6A/gM/+pP8AajVnLVe/ry+JKfvMEIXmyjlCKCMyTSNjYMXONByG88AsyTbwiJ6Vyvl74ZaPr5v7rlZudOlZzqx2JuqMOmeOsfoRm4c3V+iFVdqq5xeSSXEucTiXE1JPMr0XTLSrRzKaxnt3NNKm1uyFCE+JmsQN67BceywRXa2+4cl60jRQUCVXpYRMjmhDhf37VjrTC5l42XgjeLxyWVQWF3VAqTcBvJuASlFMGsl7/wDVsfBC8f8A0BZ/kt7glXi9Nt5v5GDwlY/pE5O1LZZ7QP3kRYT86J1R4PHcqjlbtGB8DtC6M/SAyb0mS2ygXwTMd9l9WHxLO5c6MOw4Hw3FTovVBECJeiIUbzPgPx9Shc2hovQ8Uu3XefjVWwW44rcahCFaWjxeKHsPs5JjDQ38j7UJ5GtzHiPNAmK4UKRK01byu7Nn55JFNMYLozQL+yf9+X7q50ArcF0foMj1clU/zpfurNdxfss+pGfBk87NHlktpMlOhnxE0YoS7YXtwfsvuN2K1lmX8qZIOrboza7KDQTsve0YDWcdvB+JNzirVSOaCCCKg3EHAhZIXDS0zWqPk+3wfYipeZis3s5LNbY9ezytfT0m4PZ9JhvHPA7KrLKv84dGMbpPdGT5DY7QLxqEiIndRt7K/Nu+aV4sm5+WuxyCz5Xs5bsbaI21a/iQ252/q0Iu6ql/jqpvRefR8/n9h6c8C6BmUsM/+oP9qNWVJIGgucQABUkmgAGJJOAVI5iZ7RZPsUzSx0kr5i5jBc3V6Ng1nPOAqDhU8FgM4867VbT79J1K3RMq2Ibur8Y8XV4UXRqdNqVriT4jnn7ItdJyk/IsnOnSnFFWOxtEz8OkNRC3ltk7KDiVVOWMrz2qTpJ5XSO2V9FoOxrRc0cl4aJwC69tZUqC8C38+5fCmo8CUS0SoWvBYeWWOnJevJ8V2tvuHJTwWEvxuHj3L3e4CBRpHqUlHDyLSeVClfZ3D4p7L/UoipjBZfNCydLb7MzfK1x5R++HwYViFumiWy6+UC+l0UT3cnOLWDwL+5Z7up7OhOXoyE3iLZc6EIXhDnmDz3yb7pydaoaXvhfq/SaNZn8wC5BC7aIXKGkDILrDlCazioYTrxcY33t50vb9lbLV5zEaWTXoYSaVF7bxx3DvSOhcMWle6CLVHHap2uXbp2fhy3uaI0tjDkJFmiFG6Bp+KEOzl2Y/ZsxKVZF1jbxHao3WDc7wVTtai7EdDPM0317HeaQiin9xuGBCnhsZc4GhoMRjyUY0Z5xgSixbBZ6DWOOzkuhNCn7M/wB+X7qovoXbir20LNIyZf8A+aX7qs6nTVO1SXmiVVYib4hCF5szAoLbY45WGOVjXsdi1wBB7Cp0Jp43QHKSkATBipV7yKOigQnxxF2A8l7YbIBjefBWKLZI8kNnLsMN690FlA4neVMpWNorNKQ0hzRRSBMT24KLJipHNBxFUqEhkDrI07KclZ2irIRhiknd+/1AwHHUZrdb7RcexoO1ahmrkQ2u0Bl+o3rSncwbK7zh3nYrojYGgAAAAAADAAYABcLrN3pj7CPL5+Hb+/cyXM0lpQ5CELzRiBVnpuzaM9mZa2Nq+zV195hdifsmh5FxVmJsjA4EEAgggg3gg4gjcraNR05qa7DTw8nISFsukHNg2C2ujAPRP68JvPUJ9Gu9pu5UO1a0vX05xnFSjwzanlZHtKVRp7SpjFQhSwwl3JNLICQxFx4bSvfEALghrQBQJVbGOCaRKrm0OTtNgcwObrNleXNqNYB2rQkYgG9Uw0qWy2l8TxJG9zHtwc0kOHaNnBZr22/yKWjOO5CpDUsHTyFVWbGlQikdtbUYdMwX83xj1t/hVm2C3RzRiSKRsjHYOaQR4beC8pcWlWg8TX79jHKDjyehCELMQOVo2EmgF698Ni+V3DzU8baKVfQ4QR00hGimCVCcxtVaMdG3apEIUGyYJzE1OYosByVrSSAASTcAMSTgAN6Rbto3yD0knul46kZpGD8aTa7k31ngs9zXjQpupLt/JGc1COWbhmhkMWWzhp/WP60p+dsaDuAu7ztWcQheIq1JVJucuWcuUnJ5YIQhViBCEIA1bSNmuLfYnMaB00dXwn5wF7K7nC7nQ7FzU5pBIIIINCCKEEYgjYV18qv0l6NxNrWuxtpNe6WIYS7S9u6TePjc8et028VP/XN7Pj0LqU8bMpBLRSOaQSCKEXEG4gjEEIaKmi9CaR9ni1scF72ilwSRsoKJyujHBNLAIQhSGK0qRRKRpTACF78iZYnssmvBI5h+MBe13BzTc780ovCnxhRcFJYayhNZLgzZ0mwy0ZagIX4a4r0LjxJvj7ajit9Y8EAggg3gi8EHaCuZ446lbBm/nRabGfe31ZW+N9Sw76DFp4jtquNddFjLxUdn5Pj8GedDO8TDtxUiiClXoYcGlAApwEjG0TkmyaQIQhIYJWJEBAGQyPk19onZCzFxvOxrR6TjyHsG1XdYLGyGJkUYo1gAHmd5OJPFa3o+yD0EHTPHvswBvxZHi1vAnE9g2LbF5Dqt57apoj7sfqzBcVNUsLhAhCFyjOCEIQAIQhAAhCEAV1pJ0di1B1psoDbQBVzbg2engJNx24HeKWhszmOIe0tcCQWuBDmkYgg3grq5YfL+bFltgpPEC6lA8dWRvJ4vpwNRwXWsepuj4aiyvqvuXU6unZnOCFv+cei20Q1fZndOz5Jo2YDl6L+yh4LQponNcWuaWubc5rgWuB3FpvC9HRuKdZZpvJrjNS4GoQhXEgStKRCAJVNGFA0r3QM2qcUBIxtAlISoUwGhqnibtUQC9bMEN4JRQ2iXVT0KOSY3VRqp7WkkAAkm4AXkncBtK3LN/MGWSj7QTEz5Ap0juexnieAVFe5p0I6qjwQlOMVlmpWKwvleGRMc9x2AeJOAHE3Kwc3dHzWESWkhzgQRG30AReNZ3xuWHNbhkzJkVnZqQxhg20xcd7nG9x4letecu+sVKnhpeFfX8f3cx1LhvaOwIQhcYzAhCEACEIQAIQhAAhCEACEIQALFZdzcs1rbSeJriPRdhI36LxeOWCyqFKE5QeqLwxptcFN5xaK546vsr+mZ8h1Gyjkbmv8A5eRWgWiBzHFj2uY9uLXAtcObTeF1GsblrINntbNWeJr6YHB7fovF7ewrs23WZx2qrK81z9n9C+Fw17xzUhWPnHoplZV9kf0rf/G8hsg5Pua7t1e1V/aLG+N5ZKx0bhiHgtI7Diu7QuaVdZpvP8/I0xmpcDLO2ruG1ZNeaMtAoCO9TxuWxLBIehJVKFICWJu1SsU9ksEsn6uKR/0GOcO8CizVjzJtr/3OoN73NHgCT4KipXpQ9+SXxZLVGPLMCtgzfzStFqo6nRxH47hiPmNxdzuHFbvm/mPDBR8tJpMbx720/NZtPE+C2tcK76yl4aHzf/F9/kZ6lz2iYbIObVnsoqxtX7ZHXvO+nyRwCzKELgVKk6ktU3lmNtt5YIQhQECEIQAIQhAAhCEACEIQAIQhAAhCEACEIQAIQhAAmyYFCE0BqmWcCtEyn+s7EIXoenmimeRZbNf4S3kfWEIXQr/py+Ba+C3G4BKhC8aYgQhCABCEIAEIQgAQhCABCEIAEIQgD//Z;" parent="1" vertex="1">
          <mxGeometry x="559.97" y="163" width="60" height="60" as="geometry" />
        </mxCell>
        <mxCell id="YtRP0REKgszaAL2Tqm2v-25" value="CI/CD" style="text;html=1;align=center;verticalAlign=middle;resizable=0;points=[];autosize=1;strokeColor=none;fillColor=none;labelBackgroundColor=none;labelBorderColor=none;fontStyle=1;horizontal=1;rounded=0;shadow=0;dashed=1;dashPattern=1 4;fontFamily=Courier New;" parent="1" vertex="1">
          <mxGeometry x="351.5" y="268.75" width="60" height="30" as="geometry" />
        </mxCell>
        <mxCell id="YtRP0REKgszaAL2Tqm2v-26" value="Web App&lt;br&gt;Server" style="text;align=center;verticalAlign=middle;resizable=0;points=[];autosize=1;strokeColor=none;fillColor=none;fontStyle=1;fontFamily=Helvetica;labelBackgroundColor=none;labelBorderColor=none;html=1;imageAspect=1;" parent="1" vertex="1">
          <mxGeometry x="994.35" y="258.75" width="70" height="40" as="geometry" />
        </mxCell>
        <mxCell id="YtRP0REKgszaAL2Tqm2v-27" value="" style="shape=image;verticalLabelPosition=bottom;labelBackgroundColor=default;verticalAlign=top;aspect=fixed;imageAspect=0;image=data:image/png,iVBORw0KGgoAAAANSUhEUgAAAQsAAAC9CAMAAACTb6i8AAABblBMVEX///8AAADRpBr/3Hb/43r/5Xv/33j/3nfVpxraqxv8/Pz/5nvOsl//4XnXqRvTphoyKxd0ZDbV1dWWdhPBwcHjxGmefBS+o1j09PTc3NxpWjF6aTjExMSpqann5+f513PDmRizs7OHh4fwz2/OnQCPj4+fn5/CwsIkJCS0jRZHR0d8fHyZmZnNzc1nZ2dBOB6Jdj9wWA5ra2utlVBSUlIYGBg0NDS+lRhKOglcXFwbFwyhi0tBQUEwMDB9YhCObxIuJAZOQyRaTipaRws/MQgyJwZ0Ww4TExPZu2R6fYUAAAs+NR2SfkSnkE0iGwS2nVTa0r//7p1WQwv///L//spKQy7/+ND/8LVWUD9qXz+Ac1H/5o2Xh1pMUVv16s6plV62sabAq3DKuYuWimlqZFPr0o3Ru4AAABShmIDKu5IiKTTdtUiPi4ASGyz/66H34qrk1a7AnTw/RFBWWmTV0MSDe2YwNUHjxX3mvlOln4/W08+sAAAYLUlEQVR4nOVdCXfTxtpGtmR5k5XddhLbceyEmMRZgSROSEhYEiCElt57+7W04Xbh0jbl0kLXf/9p3hlJI2lG68iEc59z4ICXsebRu887o2vXrhCaH/oCrg6a0m495Z+oLUi1lH9CDJYlSVpNUzZq6BcaKf6AMBQlwHIxrR9YgPFvpDW8SLQlgnTu3IQ5fGpcC8RN82KlO+LNRs0evS98cOGoSRTmBQ/eoMZeETx2CgAZHpgXvCRSNIq7NM+7AkdOCcjGH43alyzOaozZg6IfkYQNnBpuGVd59pS6f6uCBqb1o47+uvIRBpiLapkW5iUhF71Mjbj/Gfp7TMSwaWIWXeVkS3JAQOB1kx5v5R/nxt/t5KOmixV0rYryxElGUgtavO0YbuzFsfH3gpALThGrxkX+U5HPJJFkFO84R7tWmjH+3hR0yanhxLjIGTlXdnGRTE2cUiE9+pe2h6yGqGtOC+haX2qq5uYiSch8wzVU/4X2DMTjaqOJrrGqZeUZNxfxc6ll10gnn2Wx3F3xjAS7ETXrVZLYMXPbM9Dn2dwp+kfaVZKEgICoo2az8sA9hZgmo+kZp6Zm1Q7oiuCLFwyoLShZg4s9zxxuxhpx3z3Mo38Yw0MAc8UDjE3jEpcQF2rWw0Ws++jREKlpSJ0KXCwKv3yhQCb//xAXWU+IEU8wTjxi8TkaHfzUsvDLFwoUFH0ho6tVVa9gOC1GsVkfm2i3GysLC/MICwsrjUZ7ol9v2g7CKxafqWh0BZmjKx5soav9ErjIalXPPECoa/WJxvzqjSUvVRSWbqzON67XPaGF1H4BgysoIbniwRa63K8wF1ll2j2R/cayZ3LR8PXnZGyU8Nz50LP1BWTsL7UsgdevJsTjC5VwcYT++6Gn64umg4tcRzQXv5lDKyhRvdqBZ93BRVabDJjbYO14lP7/yOj08Qj/4/+WzZFl0L8rXdkCLr6xuOCRcTR6tlWe7LQUAyXa926VZOMVrdUpV/fWj90q9vcLa2AZKLzSC7djLi6yueyxk4X1Z6etkizLmqaqoPsqrUgdYg7UnKbJSkmdrJ5NWxHG30rWxcWVrvL1gYtcloJiuta19WpHVmTN8S76gK0lT0rOt1TVYETuVM/WjDe/paggefDHxkVWy+5JI2fllkGDmmUA55yAPY31AURIqzrpeA9zMfuh5+sHFhdZVc4pslsaaMFYM7mYZJKFGXW+Ja+jz0986Pn6oe+2F2FgBagjSvCHHVxc6UTVYzvDTYxwcSYHf9bBxZXuwXDFF2EntheoIv8zXODKjDQILxYfDRdfReYCu9X1q8vFWGNlsT0WLeSHfOS7QC6MSMoRZuQgPD318TVuwALJsLiomXXGOwsRIhrIU3/3vb+qprTK1a1npxpFWenI+F4EschqT4fnR5zV5/nQ1Xf06e/9JqVpz47IqFu2C0VudeYqcNEcm2g0FlcWG+1+3VSJW5ITN0KGeOizu/xJqUqVKmCOUmQMpHIEFSE6IjTWqjc2Xcu2JzeWF2drC5IHd0L9MKrc/cEPmchy2trM2QxKQs+sTxpuNZLFxZVlcQskfffiXABuhzAcqIT3+AVvBjlQj6eQqCpoNnZE0ZqOoiKEC0G5WW0lGhGAzUCvgloOpBecmAkKczM5MunSNK0laicKFcSnCllErM3HYAIhSFFg3FdsLhSkIFsl800oXGTDh5pOLkDZRNRyFqnZLW2utPtjTQP1sf5EY2HzNoMCSjRCjPwfphXU0HLzU8qWIEcayWDSXEB0lrze2bRnuzzLKhnW/chY8r0Z0N35LcsMwtrRDF2sQWkIu2LB+HbOGZ0JqoO3rVvMM8PepW0H/CwWJKrMwBNZu4GjCoGCitFgi2kEZ6XWZLn6jI5LYX1kKSkVpvNY5heRA7jwMxrwVVawBavBZQdJqKB1HFSy0JTJp2TNiU7pYQ0x6VYB0hu46yvpAVz4xXvo7XeMCaqtrbURZzkTGc8n/lxoWtXuCKS4wKv4CddTbwTeWepTcSQDlkk/ZUwL5SEup9EJKGWpStlcFjganVmvUjoCWX6ypkY8ydtBaywTbAYocG0GBBiv2N7BRYUawIWawxXy9XJHUYzojBpUnQwQz2CsYv0I/mBwRMqjE6L3LzpKiLgBTWiNbztzLbSCNlKVZa8pBv+cKATHWUaoDo4GnwWME84X2/jt0RBs+NtOtYX0Y09hOl2cpiYItaBIHdbgsNIzCsu88NeKTWYC2UA3l+9TZbRScMqhCofg8anAG34i9An1l92ZO8btBR/hhJ13JyYb/lxs+ZS+Ifma5L0Ly+y343MB3jRieFLrLy7v2h00+6sLgVU/qAEQEtdbfmygm7vFiTuh6lflCk3pJLyEM4AVOaaKFWu1sLE/mF2LPj820M3l5SMoxh4tsd/LEpcav40PLm0IxVKwulSBaL3DMxsl490O+y1YY23xmFBlcKmxV1MXIhqL2ADjCdnfYORoemZ9b88dYpkzQjk7RwvkY74pUWX1GfSrxO1EqSXRkGhAP/T6VauVVSBC0uh8TKZQMtzIdElmQUE6oCn2C1R3i9JZJxIX9wJBLETvFmUDbPS3OVaVpnM8TWENFT5HmTCsxciMjVErtVerR6byxd3Th/eYD6fVC4qHPzBLGLF72axiaKe6N0PYiGv72ujLQ9qfBdsm3rPchwAusqh3SYYIPG7hFxbBhtD1VpxdJu70vywuWmUKRqQ1clpmwrAIo44XTh0Kh9flY14iVFhE7Znl/0qD2jj5IytwUHM2FGNC60qOhdIoirPoV5y2B6LOuD4RKrLpNjfVV5yLTssl2T8dQVU6TqSljPj2YuCu+7iR1o0EMhUG9RXP1oY7u2cdxafIDbaD3cyWVSSfQCtL9m/FXRtB301tg0Ft0SERP/3+EvXwS4a+HJdlfhq6x09SUUDKCdDgq2cJbi0Up1Nan5+gN1c/vvndN5eFwgb6N9jQwR4vAkd6wE1GBr5ygb4aex8NpAhpxJx1uv71+vuXp5VKPpPRe/aLa2fsSUHC4ZeR8+0F9szXY15ySqdFtPedRBTyegZQwa+NrJez7LIUXk/k9iShZL7K+aJG9ofHjRv3E7ggHppU3esxTQTiApTk55Kc4yu95HPr0SISkyhV6TzDiyWxAwQpgX6xMbZqM7H/lYOIjKkkb1jhljnbp5J05F+eYK2xTFqLJbG7UJK4YxYmbOV482UVbIQTFVjW+NHHFZzwtSCLd4eUGW/n1DJZQ4urIjWxbqRtV0FvvbwseIhAXBygdze5JS20Nd+vmxNZ1iNmRqPJuUQ7ECECFxV10u0KkuTUDVtJtuHdt9z7bsynWlL4KBme5JS9aSBZSQsqTUJam4ruZp5xllQYKNxH7/7N0QLZSMukJyO+MNwQU3ASrgaI4sLDhCTdL7C5yE+hd39iW0+15RmHCVZvBj5YI371QRAXzAavbbaSZPLwLsd6dtZYQ3nAWi/Ah4DEjxuF2AvOouJBhc0Ftp7v2R19qgIzks46kwx0ylDZPe6wdAT23SSIlQT4kbYnDyUYcLjQM/D2Lxy3Krem8XyVnOqEVtqCb1ZLrK/i/VhJ7iv6fpL4om81eH3x6z0XGT2OkhTgg49eZO1pOmZVwq0Ve67NVzLWn9EWpR8UU7At/FaCqUBDc/y4s2mdCHj8ayFfmHJycc8lGDpBftsjGE4ytBzkFSOn1BI0FLsMlOnYgiIR7ydItOCFSjlxTzUsWp2g//y1gGQgn3nuIEN3ht9zHGWSPNGTqkyCDKxnrY3ZOMaeyTqMpuIeh9LX6PNJkKe2zV8dwUyg6TpFYyofkwskBtg2lME25HBJd3DqshQl/ogxJgU+IE4VvG53gtJGMp/ZsS9npxCWizVvVE1s6HRLNqQE3Me65vakYrmAJpToAUbR0alEe0+9MG6/Mee0nuNTJvBnfqiaYJaxSvjwqS0NW49JbwOLZg0AzTjL1ydsROcCVs0iH2/Vdt0Dx5zzc5ZoHDrj8LwF7Eo2P9UI2BU9TV23fsLtVcgnCEpC+p5RcTZigNK86aJCuudUBks0zjlxuKkvnwS0KhnacQQfPJr07ePBTiTx4t98ZN0y09HHVDzhCiUqc/eZr1OfeIjefudT0wHInSMiFb7N4bAnLXmpEpY4I0RrVvf8vUxh21KGBy4B0AuH8PpGxfEiDXj/3yUM9l033Qf6U2aWusjXYad38jIMGIzw0ZaZhZ33DD+qF3rk/rvcpy0alFxE9CMopgD38RRP1XAoXir4I8aSkpsRvmgJxUE+T2711F38iu7WBiwaFEeR4gskFOA+jow8TMPudctjPkVz0UZfDOdVTUvxYNsW/XxlCrIHRlaKRON5IRQXHrkwY4ot7EixaDxxu1XRXECqGqZIWDPb4g8rDhnIV8A2ZLxmEokG7W6nnADb+/hHVnyhapZQYGhZvJdbddhQiC/KEHhP0LFFvPjCAORXwa7ZbIp/MOeRgLx+4ParpmhsT1Fc5F0AgVp5kfPGF/gspGd0yF3Cc646PopCCwizBJ2afx2NFZjgmYHmeYHhJvVKZoPtPz1mhKYQLyiyggy0GOiu2GhZFHm5lwtwaJF4G5GJEIM17QZfhi4AG3MHnGIvH3il+c3nXi6y8tNnnpBbVU5Ppl2GRZXBrAg7KQiW/HxDjDZlk3j1bT0yFYZkQAvCI9b+Gk8ehkWj43pFgShdXBciWE+/gw0diZi7QpMEZLGkHXpfsltU8GYRYRpyDZ+4ynerNde29hj3nwvsggLzEi41uPtP5EHHUA3n7dzrEwoOzDINN8eIgwJUwt78Kx4VGhgLsefZ7vIFw4yvegUz4XooUEkMQwyO9T3LfgYCZ+qCWyZw0zrrnU0qqCAJ111eIh6PDGwymPYzAAp+lInolmUQDG+oViQdBBsk0qxsI8M/J1JJMhWsew3uaRA84BZf8Qfv4e3I7FcNN2pJgo76ag5FWk/DZMA6mnQ90iEX1pmXKWx7AbfpKgyZDwHq0Qai0HOVdAWQgYtCv0U6/YQcDJtGOyZjE0kbM3F3zlW0zOzQoWclucLoeWyUP4lARq4F2Uk6xz0vuk0ycSA7np4SZ4D5sJdnZSjRyMicRyRDbZ2nYjcJIOOw62RkTWzDf6J5VFfYSRxxkOXm0GSo2RGvHAvEmINoEnYfBpiG/Fdioi+zzvNJKAOKt3CneXYrhBK71L8laSrIShbAGQsIvsh6s/RbCNdqUhG3vzcE8GYr0JJVhgNh3s6/Xhsfey7Cr5hkTASSoXUG9pWmBVgeQIurYanA5kJQvGGSsRiwZiKTs7RT3k8LmnHDpGI7eIoVQeYCk0FsxqPP/bJWpTwUKsgGZpKiz4W424Xv0SfZla44ZGDhf3fBdyekTWkIu6ypx02GoSJz+U7yrpnFh57Biy2veRZUVchi8zBOpFyIRIUO7WIb4nJ4XSfrcItMPdFaR8TADoEKEnFJg1BUZPLfoA/zCqCxyKiQBeuvGXoimyenD+dMeBJ4M9c6vBBqOglI1mqowX+doqEq5pMWhvPYhLapIgehyCj8LtJ0moOatcT3F3QQanYfBJ/0JAZmadPAVBgjUEHedyA4gzfcyTm5iIZlNcx24CFsK8bAZ/v8hPeAhIguMpd/SO4GNRHQdbPL5Y/fPlWxUJiP5xjSE7ZJFetX4liDRV8/fS3WjVgDk04WUJQXak6xntE8pEf7FXGfaK8wia3GXb+lUED+T/Q5wRU/DFxYBTy6ODUfzbM/rAfv3DbtRPfVI/jnTtANxy7V05EjBLae2Bjag4NxZzfUK7pv38N/gjxr/iUIklg3YpHh7i4f3iNFcBnrIZ599+Id/V8eKt+BkU2HC293+bCeNdN2CkL34g284B9mVH4IZ2PjghKNk/7XwzKd2HXctw1E4RPJ1hkeCj8DFykin4EODWn+2lu81pj+43KxNz2n73D+N0wGXiZCmz6cQPtAMBepiQX8cKF3V/q6eXHZJRXR1ONvnJA5lwYvSRA6VagU8pleb/zw8ABwaGB8qtfrzeVRgXhQAGLSYyPfe/VnN2OVelImA7d395y+Ub8kzWoHGw883o3GxuF4bztTMYBISYONLr4y0t6VaoyBXci4O5ro/hV8nC2Fuzsbh1PbmYJBSVpSglPYpRSPAmvju+80knrlsvql/yNdOdh5ON6bA0ZEU2GuoaT3aFSckDnL+vnC6Xd/xCHCZuRgajtfEEtIwezET+uZuXhR5C590d3Cn7+/Dj9t3vZUw0c/nJrLC+Mjb8ehKZ0pifuaKReiF/78+bE90Xn/xylIqGmjVu+3VzY9G2wwnh/29EIluQkxl1wBqRQxsN2kXEh38m9LJpYWDQdWDCLDdnLF5uwi86HJ9w96mUJCk0qaNDZw9JXCI8expzi0XEi38uM7cwLWcc77jNlR8BRia/3Gsvc7DzAfcanADnVjrqLjzj/hZ2zieNNOR7t/Wsd5rFCeiyP9BJylinp73iMiO4fbMR2Mrg8wE8jFgQ0VXeACp2nbze4v78lFLzh9+K57UjT8qgr19rL7+U8bU3HEo7BBmABeIPgTu3KGGwtMu6nrn+DkVNr1hHZ+5+YH7QCvzS64BMQQj0K01ia9d2/O/gZp4xG5dtaGCzPtZvdyllwqq63B76T4ED9V7Lv4OH/Yq0Siw/Fh4lPElTOwsTDjze4kibhvskNcn4cIhMyWirPzTn3Z6OXjNr6REFTY+hkYix2LCiwlfO2flXiIoLi19qrjqxtTMemo4GYNQeUMbCxIyaL713V8cT4lRe5TmyIeGTG24MhzNiIqC6DQO48kk/7AYmAai0uyJuIrdDVerhY5cWw2HNbjYS+aZ9HzD63vCsjgcWurGWR18X8DRY7zfJ44Br3Wph31+cFceDosoUC4lTyDh8DaMhYX74OlAsD2rTHzxqKDjvvjmVA9s3lLKAYQgCbO4LGLNI3FWxxthnFRbHcS24QVJ2g67oUwHUQoTu6Nb1dwbSdhBo+tAzEW+l/YKoYLavsSA3EP3EGotakQf4B0xYcJPY8yM8QDhPJ4H2OyDB5KDlZk8dlSlPk0WfWKZL7NcULyzhRfOPTe4Pn4NlUiIkeKJPhtcKdmx1n3F3x0QXgbxMhOElea6nRgyxWOuZ67VIZrXfEzeBxgmmnIJfYhUVakGAG5gERplgrDdjgxmOc1st0i7qozruqZZe/uxWZ0ZhkFchFBT61Bnc1kCEcYt0LytJj3AkTcrPXqfzUjagig6XmKFdouW6xPtNsTER/b7gR9kva9nq8dtciAxcVYSSu+p6a0dS9AMqPv8Fx1k7G7Yt3U/UQa07aF48F4iHSF5Gkxlp2xdbAKnMRaxLhk54G2biSqLdDCEUJVSFN99KQVNGTD7i2Yj61tYwwKbCTbE1ds2F42WFXI4mJUkwUaMrAq0vq1uGKBLti3Dpq0OEsdM35/KqBISra4RsvTik4N6b4FbmL3Qfk+uzxxbYF67OLgUPc1HJiMaHnapkNDjJBzN45w2fDTExE7R9u2qhz47v7ETZBRnoKIkwl7zeYS5CRJ0OinJwmGtTFmR7kb2z5mFOdpEVITiArsHsTuW6hmJTsyge9PBPUGNK0TU6XnPmYU52mhhRHUm2pU7F4sJ1MRQF1YuYuHos33fT4bOE8LabJxhEnF9F2o/yY6LhiwyeZCZAONbTgeTPHYwHlauPgANI/a+KJfhj5mLAD1MRaSj0ujbxUYB+MVZkeyXoE8baLZDLwLYDjpg+27r/rhibwCqFsRx8mhzgo4dP2uJZT7m4t9PiWg1nSTbvcXqNgNZ8OSEDTt4PyQ5WJJnmbh9gI7yIF5b9CtSCQAH1bvvRDUbKfCCji8xx8uLTJMOLzjaAfpfgZCN/wJJQL1RAsGG5CnvX7zhqZj3s3GgstwIi5gvYP3MPUrjEUfNvTM5cXF27dv//PtV3YfotMkgsdwHYCEXWqCp3d/OFhLE489bOh6F5DPFyq9DdOS0oYA1MzV2duFenhaDYIpw3oykpcNipdKxtzhaRtREAv3g2IwFx+lXCCEZGOObEKx6l5gb3oVZ6t/F84GTx52fjA42OCQYR9Wbkbn6N/nU27M3v4I/YgDFBs6l40KeQYjXiP1Lcd9VPGFBzYbh3le1mYerAG+1bdOO6Qtn6nBekbQrUPvU/YIGT1bS3y5+GjyES7a5lSMrI3NBjkmFKmAb11ySBvEU4UVb4wYGT0L+AFzcNuLfvjQExECi40n40xA1JWkN+Kjgq/wY3yE+UZMFP0acjE+9CUOEVRGz0RKe3CuKPzZWLj2/55MoXJFPWJ5AAAAAElFTkSuQmCC;" parent="1" vertex="1">
          <mxGeometry x="1094.35" y="261.9200000000001" width="97" height="68.66" as="geometry" />
        </mxCell>
        <mxCell id="YtRP0REKgszaAL2Tqm2v-28" value="1" style="text;html=1;align=center;verticalAlign=middle;resizable=0;points=[];autosize=1;strokeColor=none;fillColor=none;fontStyle=1" parent="1" vertex="1">
          <mxGeometry x="509.35" y="363.75" width="30" height="30" as="geometry" />
        </mxCell>
        <mxCell id="YtRP0REKgszaAL2Tqm2v-29" value="2" style="text;html=1;align=center;verticalAlign=middle;resizable=0;points=[];autosize=1;strokeColor=none;fillColor=none;fontStyle=1" parent="1" vertex="1">
          <mxGeometry x="593.73" y="363.75" width="30" height="30" as="geometry" />
        </mxCell>
        <mxCell id="YtRP0REKgszaAL2Tqm2v-30" value="3" style="text;html=1;align=center;verticalAlign=middle;resizable=0;points=[];autosize=1;strokeColor=none;fillColor=none;fontStyle=1" parent="1" vertex="1">
          <mxGeometry x="677.17" y="364.40999999999997" width="30" height="30" as="geometry" />
        </mxCell>
        <mxCell id="YtRP0REKgszaAL2Tqm2v-31" value="4" style="text;html=1;align=center;verticalAlign=middle;resizable=0;points=[];autosize=1;strokeColor=none;fillColor=none;fontStyle=1" parent="1" vertex="1">
          <mxGeometry x="755.5" y="363.75" width="30" height="30" as="geometry" />
        </mxCell>
        <mxCell id="YtRP0REKgszaAL2Tqm2v-33" value="&lt;b&gt;1. AWS CLI to fetch Public IP of EC2 also updating Nginx Config file&lt;/b&gt;" style="text;html=1;align=center;verticalAlign=middle;resizable=0;points=[];autosize=1;strokeColor=none;fillColor=none;" parent="1" vertex="1">
          <mxGeometry x="529.3399999999999" y="488.75" width="410" height="30" as="geometry" />
        </mxCell>
        <mxCell id="YtRP0REKgszaAL2Tqm2v-34" style="edgeStyle=orthogonalEdgeStyle;rounded=0;orthogonalLoop=1;jettySize=auto;html=1;entryX=-0.012;entryY=0.508;entryDx=0;entryDy=0;entryPerimeter=0;" parent="1" target="YtRP0REKgszaAL2Tqm2v-59" edge="1">
          <mxGeometry relative="1" as="geometry">
            <mxPoint x="487.83000000000004" y="498.75" as="sourcePoint" />
            <Array as="points">
              <mxPoint x="488.35" y="534" />
            </Array>
            <mxPoint x="607.7900000000001" y="533.8" as="targetPoint" />
          </mxGeometry>
        </mxCell>
        <mxCell id="YtRP0REKgszaAL2Tqm2v-36" style="edgeStyle=orthogonalEdgeStyle;rounded=0;orthogonalLoop=1;jettySize=auto;html=1;" parent="1" target="YtRP0REKgszaAL2Tqm2v-37" edge="1">
          <mxGeometry relative="1" as="geometry">
            <mxPoint x="487.83000000000004" y="528.75" as="sourcePoint" />
            <Array as="points">
              <mxPoint x="487.83000000000004" y="563.75" />
            </Array>
          </mxGeometry>
        </mxCell>
        <mxCell id="YtRP0REKgszaAL2Tqm2v-37" value="&lt;b&gt;3. White Box testing including Unit , Integration &amp;amp; Sonarqube for testing and Code Quality Analysis&lt;/b&gt;" style="text;html=1;align=center;verticalAlign=middle;resizable=0;points=[];autosize=1;strokeColor=none;fillColor=none;" parent="1" vertex="1">
          <mxGeometry x="524.8799999999999" y="548.75" width="590" height="30" as="geometry" />
        </mxCell>
        <mxCell id="YtRP0REKgszaAL2Tqm2v-38" style="edgeStyle=orthogonalEdgeStyle;rounded=0;orthogonalLoop=1;jettySize=auto;html=1;" parent="1" target="YtRP0REKgszaAL2Tqm2v-39" edge="1">
          <mxGeometry relative="1" as="geometry">
            <mxPoint x="487.83000000000004" y="558.75" as="sourcePoint" />
            <Array as="points">
              <mxPoint x="487.83000000000004" y="593.75" />
            </Array>
          </mxGeometry>
        </mxCell>
        <mxCell id="YtRP0REKgszaAL2Tqm2v-39" value="&lt;b&gt;4. Deploying Containerized application on Apache Tomcat in EC2 configured with Nginx Reverse Proxy&lt;/b&gt;" style="text;html=1;align=center;verticalAlign=middle;resizable=0;points=[];autosize=1;strokeColor=none;fillColor=none;" parent="1" vertex="1">
          <mxGeometry x="524.8799999999999" y="578.75" width="610" height="30" as="geometry" />
        </mxCell>
        <mxCell id="YtRP0REKgszaAL2Tqm2v-40" value="Apache Tomcat EC2" style="text;align=center;verticalAlign=middle;resizable=0;points=[];autosize=1;strokeColor=none;fillColor=none;fontStyle=1;fontFamily=Helvetica;labelBackgroundColor=none;labelBorderColor=none;html=1;imageAspect=1;" parent="1" vertex="1">
          <mxGeometry x="1072.85" y="329.40999999999997" width="140" height="30" as="geometry" />
        </mxCell>
        <mxCell id="YtRP0REKgszaAL2Tqm2v-42" value="" style="shape=image;verticalLabelPosition=bottom;labelBackgroundColor=default;verticalAlign=top;aspect=fixed;imageAspect=0;image=data:image/jpeg,/9j/4AAQSkZJRgABAQAAAQABAAD/2wCEAAkGBxMTEBUTExIVFhUVFhUWFRgXFhUXFRUVFRUYGBUXGBUYHSggGBolHRcVITEhJSorLi4uFyAzODMtNygtLisBCgoKDg0OGhAQGy0lHyUtLS0tLS0tLS0wLS0tLTUtLS0tLS0tLS0tLS0tLS0tLS0tLS0tLS0tLS0tLS0tLS0tLf/AABEIAOEA4QMBIgACEQEDEQH/xAAcAAABBAMBAAAAAAAAAAAAAAAAAQIDBwUGCAT/xABLEAABAwEDCAYDDAgFBQEAAAABAAIDEQQhMQUGBxJBUWFxEyKBkaHRMrHBFCM0QlJicnOCwuHwCDM1Q5KisrMkY3SDtBYlU1TxFf/EABsBAAIDAQEBAAAAAAAAAAAAAAABAgMEBQYH/8QALxEAAgEDAwIDBwQDAAAAAAAAAAECAwQREiExBUEiUWETMnGRodHhM4Gx8BQjwf/aAAwDAQACEQMRAD8AvFCEIAEIQgAQhCABCFrOeOfNjycys8lZCKsiZQyu3XfFHE0CANmWOytl2zWZutaLRFEPnvaCeQxPYucc6tLNutZOpI6zQklrWQuo+lLy6TEnDCgWiWhznkvLi8nFxJLvtVvVihnuB0XljTdk+MlsDZbQRW9o6Nl3zn3nuWsWzT/J+6sLBuL5S7wa0etUzZ/S51HeCFGrNCwLJZ1r045Sd6DbPGNlI3OPe5x9Swtp0n5XlrW2uaNuo2NgHa1tVp4ZS93YNp8gmvfXgNgGCelIDNT512x7hr2y0uvFSZpO8DWoFkMn6RsqwGjbbKaXUkIlF31gJWpqSbEHeAe3A+IT5QZLRybp2t7P1sMEo4B0bu8EjwW55v6crJK4NtML7PW7XB6VgN2NAHAX40K53UsmDRwr33+qiSpphk7Syfb4p4xJDIyRhwcxwcD2helcZ5CzgtNjk6SzTvidt1T1XfSYbndoVw5padGmjMoRapw6aIEt5uixH2a8lCVFrgZdaF4ckZXgtUYks8zJWHaxwNOBGIPAr3KkAQhCABCEIAEIQgAQhCABCEIAEIQgAXmyjlCKCN0s0jY423uc4gAdp28FhNIGdjMm2J07gHPPVhYT6chw+yMTwC5gzpzvtNvk17S8up6LKkRM+iwXDmanipJeYFl596bnO1ocnDVbgZ3jrH6th9Hm6/gFTloklle6R5e97jVznEuJO8uOKZ0x2UHID14p7jT0jV243gc+PBSSTGD4SGgGgvJvI4eSYxhBqCP4h5p0zqhtdxP8xUSm4rIj1QtBcMAajAihv3bCmPbqGlKnecBy3802K4F3YOZ/CvgpHyG47HYg4VFx8+1Wx3QHnJQpdUHC47jh2HzUb2EYhJpoQikxZyPgfxHio1JDiRvBHbiPEBJAMaKmm9STGrj4chcEln9Ku4E9wu8aJqnHgAQhCkI9uScrz2aQSWeZ8TxtYSK8CMHDgVbmaWnRwoy3xaww6aIUdzdHgebaclTPRb7uePdil1gMBXifLD1pSgnyM7HyDnBZrZH0lmmZK26uqes2uAcw3tPMLJrjjNrOW0WK0ttED6OFxB9B7NrHN2t9WxdRZi55wZSs/SRHVkbQSxE9aN3tadjvbULNUp6d1wM2VCEKoAQhCABCEIAEIQgATJpQ1pc4gNaCXE3AACpJO5PVMafc9+jZ/wDnQO67wHWgj4rDe2Pm7E8Kb00BWmlHPJ2Ura57SegiqyBuHVre8je4ivKg2LT2tJNAlYwk3fgOJUhcAKN7TtPkFNLIBUNwvO/dy81GhCmIkm+L9EeJJ9qjUk2PY3+kIgF9dgv8vGieNxiy3Ubux5nH2DsSx3tI3Xj1H2dyiJTo3UIPfy2qxCBObIRdiNxw/BI9tCRuSKQD9UHC47jh2HzTCC07iL0JzZCLsRuOH4JYAe5tNbjQDket7Ao2tJwFV6nloDQQcK088FG6QG7rU3CgHcrNOBsZqAYnsF/jh60dLT0RT196Srdx/iHkl1m/JP8AF+CBEaFJrj5I73eaNcfJb/N5pYAjWSzey7PYrQ20Wd+q9v8AC5u1rh8Zp3e1eNhJwa3uu7yl1gMaHg1rfWR5p6QOrswM94Mpwa7OpKwDpoiesw7x8ph2H2raVx3m5l+WyWqOeGjXRkmgu1xTrMdTFpFy6vzYy7FbbLHaYT1Xi8bWOHpMdxBWSrS07rgZlUIQqQBCEIAEITZHhoLiQAASSbgAMSSgDX8/M6Y8nWJ9ofQu9GJlfTlI6o5DE8AVyTbbVJaJXzSvLnvcXPedrnGp/wDi2/SnnecpWwuDiLNDVkA+Xf1pKb3EY7AAtJe+vADAblao+YCvfsFw8TxKYhCkIEK/swcwrFlHINm6ePVl9/DZo6NlH+IkoCadccHV4UVfZ66KrbYNaRo90QC/pIwdZo3yR3lu28VHEKKkBo1o9I9g7gldc0DfefZ7T2pXDWkN91TfwGJ7kyR1ST+eAVq5bGxqEITIkr72g9h7MPD1JidDfVu8Xcxf5jtTVMYJ8Q2nAeJ2D87kwBPlNOrux4nb5JoBZDUA8/WUxPf6LeR9ZR0R23c/LFSAYhorgn1aN553DuxSOlOGA3C4figBejpiQOGJ7ka4GA7Tf4YetRpwYdx7kAD3k4lIn9E75J7ijoHfJPcjDAWz+kO7vuW/aIc9/cFq6OV3+GnIElcI34Nk5bDwv2LQ4YHawu2jdsTnQGuzvHmpadUcMaR2o01FRglVUaDc8nTxGwzurLC3WidWutCCBqk721A4im4q11z5wcHhgCEIUABVLp4zsdFCLDF6UzQ6Y1ApCSQGVr8YtNeAptutpcn6Tcue6MsWmQGrGv6Fv0YupUfaDj2q2kk5bganKx2JB9nZS5RL0uYanVuIxA28W8OCj6Y7aHmAfHFWuIESFLrN2tpyPnVJqN2OpzHtFUtLEdRaEP2FZuc//IkW9rRdCI/7HZuc/wDyJFvSzvkZX+emiex23WkiHuad1avjaNR5JqdeK4Ek4uFDvJVB53ZjW3Jzv8RF73WjZmVdE77VOqeDgDcuvFHPC17Sx7Q5rgQ5rgC1wOIINxClGbQHEaF0Bn7oXs72PnsTuge0Oe6J1TC6lSdXbGeF4wAAVAujIAcQQHV1TQ0NMaHbRXRmmIRpoa7k+UX3YG8cio1PGzWAAxBp2G/z71ZHyASO4a3YOe09ntSMjrebhv8AIbVK8AHfS4Ddz47aKNzicVZgeCdklB1QLt95pz5+tRmTgO4JrHUNUsjaHhiOSsQxekPDuHkjpnb0xCYD+ld8o95SdId57ykASvYQS0ggg0IIoQRcQRvRkBCU5kdb8Bv8t6e2OmOO7z8kOdVSUSSiOaaXC4eJ5p8orXeK9oHkom4qV56x5n1qaRLBnNH+W/ceUIJyaNa8Nk+redR/cHV+yuswVxhq4kYEEHgaV9i6k0X5c915LgkJq9jeik368fVqeY1XfaWK7hxIhI2tCELCRMTnZlUWWw2i0H91E9w4upRg7XEBcbOcSSSak3k7ycV0T+kRljo8nx2cHrWiUEj/AC4usf5jGudVfTWwmSg1HFvq/D84JSNbg7wd5FRsdQ1TpG0N2BvHJXLdARkIUtQ6447D7D5qNzSDQpNAdSaEP2FZuc//ACJFva0TQh+wrNzn/wCRIt7WR8jBCEJAeTK/weX6uT+kqs9DWR4LXkLorREyVhnlucMDRt7SL2u4ihVmZX+Dy/Vyf0laDoA/Y4+vl+6pr3WBqOemhaWOsuT39K3HoX6okH0HmgeOBobsXFVPJHJE57JGOY9pDXMe3Vc0m8gtIBH4rs9YHOrM+yZQZq2iIFwFGyN6srPov9hqOCtp12n4hpnI5a08PEeY8U18ZHLeLx3qxs89EdrsmtJBW0wi/qN9+YPnRj0qb2130CrtrqYFbIuM1lD2ZEpGXim0Xj2j2pxocRTiPJZfNrNO126TVssReARrSejFH9N5uB20vJ2Aofh3YjBrb8zdHNtygQ5jOigOM0gIYRt1G4yHHC668hXBmboeslmIltVLTNjQikDDwjPp83VGFwVlNFBQYBZqlx2iI07MzRtYsn0e1nSzj99IAXA/5bcI9uF995K5wzlNLdaqY+6J79v612G5dgrj3Ob4dav9RP8A3XJ2rbk2yUeTGIQhbiwUKSTE8yolO9tXkDefWpRAfY4yXcNqun9H6fV91wgnV96kaK3A9drz2jU7gqos8Oq2nfzVg6EJ9XKb21ufA8U4tfG4eActNzbJWsm+eScoeAvhCELzRmOaNPmWOmyqYgerZo2x/bd13/1NH2VWyzed9o1so2tzhrE2me8k1Pvjqbd1FiKt3HvHktaWEIjUsd41e1vPaO32JKN3kdg805kNT1XeDvYE0BGntdUUdhsO0fhwU0tn2kgA40vv20SCgwHab/DBWqDGkyzNGulM5PhZZbREH2dpdqPj/Ws13F7iQTR7au4EX44K+MhZds1si6WzTMlZt1Te040c03sPAgFcgRvJBBv23+K9OSsozWaUTWaZ8Ug2tNKjcdjhwdcoTtcrMSWk7IQqbzN02McRFlFnRuuAmYCWH6ceLebai/ABW9Y7XHKxskT2vY4Va5jg5rhvDhcVjlFxeGRIsr/B5fq5P6StB0AfscfXy/dW/ZX+Dy/Vyf0laDoA/Y4+vl+6mvdYFkoQhQAFpeemjWxZQ1nlvQzn99GACT/mMwk7aHiFuiE4ycXlAc9aHNH1nt7JLTaXOc2KXoxEOq1xDGuq9wvI62AphicFf1isccMbY4mNjY0Ua1jQ1oHABVl+jzGRYLRX/wBk/wBqNWora7lraYMEIQqQBcjZyWFxttpIpfaJ/wC65dcrlfL3wy0fXzf3XLq9LoxqSlq9C2lFNmtusT93iFG6zvHxT3LNoXYdjHs2XezRgS0jYVlLJBeXHaTTlvXtiZrEDevZPYx8W7hsVlGy0y1ZyONPG54Fs+jCfUyvZjW5xew8daJ4HjRay5pBoVkM3LR0dtsslaatohJ5dI2vhVW3EdVKUfRkpLZnUiEIXiTCcaZwsrbLQSQKzzG833yO2C9Y/UaNpPh4rbtKmTOhytamAUq/pW8WygPNORc78haeugorGQH642NA8T4oc8nEn88ExS2cdau6/uw8aKSXYCetLtgFD7fGqjeynLYUqc07Dh6jvWjBbgjY6hqpXi/hs5KJzaGikYat5eo/j60RYkFdhvH57lmc2M57XYJNeyTFoJq6J3Wif9JpuJupUUO4rDIROnGXI2ky/wDIOl6y2uCSK0j3NOY3jrH3l51T6Mh9E8HUxABK9egEf9oH18v3VzqTsN4/OBVm6Ordlax2P3TZYhabEZHiSC8yMc2ms9tBrCt17dYY1asVW30rYrccHQqFquZ2f9jygAI3mObbDJQP46pweLvinDEBbUscouLwxAhCEgKx0B/AZ/8AUn+1GrOVY6A/gM/+pP8AajVnLVe/ry+JKfvMEIXmyjlCKCMyTSNjYMXONByG88AsyTbwiJ6Vyvl74ZaPr5v7rlZudOlZzqx2JuqMOmeOsfoRm4c3V+iFVdqq5xeSSXEucTiXE1JPMr0XTLSrRzKaxnt3NNKm1uyFCE+JmsQN67BceywRXa2+4cl60jRQUCVXpYRMjmhDhf37VjrTC5l42XgjeLxyWVQWF3VAqTcBvJuASlFMGsl7/wDVsfBC8f8A0BZ/kt7glXi9Nt5v5GDwlY/pE5O1LZZ7QP3kRYT86J1R4PHcqjlbtGB8DtC6M/SAyb0mS2ygXwTMd9l9WHxLO5c6MOw4Hw3FTovVBECJeiIUbzPgPx9Shc2hovQ8Uu3XefjVWwW44rcahCFaWjxeKHsPs5JjDQ38j7UJ5GtzHiPNAmK4UKRK01byu7Nn55JFNMYLozQL+yf9+X7q50ArcF0foMj1clU/zpfurNdxfss+pGfBk87NHlktpMlOhnxE0YoS7YXtwfsvuN2K1lmX8qZIOrboza7KDQTsve0YDWcdvB+JNzirVSOaCCCKg3EHAhZIXDS0zWqPk+3wfYipeZis3s5LNbY9ezytfT0m4PZ9JhvHPA7KrLKv84dGMbpPdGT5DY7QLxqEiIndRt7K/Nu+aV4sm5+WuxyCz5Xs5bsbaI21a/iQ252/q0Iu6ql/jqpvRefR8/n9h6c8C6BmUsM/+oP9qNWVJIGgucQABUkmgAGJJOAVI5iZ7RZPsUzSx0kr5i5jBc3V6Ng1nPOAqDhU8FgM4867VbT79J1K3RMq2Ibur8Y8XV4UXRqdNqVriT4jnn7ItdJyk/IsnOnSnFFWOxtEz8OkNRC3ltk7KDiVVOWMrz2qTpJ5XSO2V9FoOxrRc0cl4aJwC69tZUqC8C38+5fCmo8CUS0SoWvBYeWWOnJevJ8V2tvuHJTwWEvxuHj3L3e4CBRpHqUlHDyLSeVClfZ3D4p7L/UoipjBZfNCydLb7MzfK1x5R++HwYViFumiWy6+UC+l0UT3cnOLWDwL+5Z7up7OhOXoyE3iLZc6EIXhDnmDz3yb7pydaoaXvhfq/SaNZn8wC5BC7aIXKGkDILrDlCazioYTrxcY33t50vb9lbLV5zEaWTXoYSaVF7bxx3DvSOhcMWle6CLVHHap2uXbp2fhy3uaI0tjDkJFmiFG6Bp+KEOzl2Y/ZsxKVZF1jbxHao3WDc7wVTtai7EdDPM0317HeaQiin9xuGBCnhsZc4GhoMRjyUY0Z5xgSixbBZ6DWOOzkuhNCn7M/wB+X7qovoXbir20LNIyZf8A+aX7qs6nTVO1SXmiVVYib4hCF5szAoLbY45WGOVjXsdi1wBB7Cp0Jp43QHKSkATBipV7yKOigQnxxF2A8l7YbIBjefBWKLZI8kNnLsMN690FlA4neVMpWNorNKQ0hzRRSBMT24KLJipHNBxFUqEhkDrI07KclZ2irIRhiknd+/1AwHHUZrdb7RcexoO1ahmrkQ2u0Bl+o3rSncwbK7zh3nYrojYGgAAAAAADAAYABcLrN3pj7CPL5+Hb+/cyXM0lpQ5CELzRiBVnpuzaM9mZa2Nq+zV195hdifsmh5FxVmJsjA4EEAgggg3gg4gjcraNR05qa7DTw8nISFsukHNg2C2ujAPRP68JvPUJ9Gu9pu5UO1a0vX05xnFSjwzanlZHtKVRp7SpjFQhSwwl3JNLICQxFx4bSvfEALghrQBQJVbGOCaRKrm0OTtNgcwObrNleXNqNYB2rQkYgG9Uw0qWy2l8TxJG9zHtwc0kOHaNnBZr22/yKWjOO5CpDUsHTyFVWbGlQikdtbUYdMwX83xj1t/hVm2C3RzRiSKRsjHYOaQR4beC8pcWlWg8TX79jHKDjyehCELMQOVo2EmgF698Ni+V3DzU8baKVfQ4QR00hGimCVCcxtVaMdG3apEIUGyYJzE1OYosByVrSSAASTcAMSTgAN6Rbto3yD0knul46kZpGD8aTa7k31ngs9zXjQpupLt/JGc1COWbhmhkMWWzhp/WP60p+dsaDuAu7ztWcQheIq1JVJucuWcuUnJ5YIQhViBCEIA1bSNmuLfYnMaB00dXwn5wF7K7nC7nQ7FzU5pBIIIINCCKEEYgjYV18qv0l6NxNrWuxtpNe6WIYS7S9u6TePjc8et028VP/XN7Pj0LqU8bMpBLRSOaQSCKEXEG4gjEEIaKmi9CaR9ni1scF72ilwSRsoKJyujHBNLAIQhSGK0qRRKRpTACF78iZYnssmvBI5h+MBe13BzTc780ovCnxhRcFJYayhNZLgzZ0mwy0ZagIX4a4r0LjxJvj7ajit9Y8EAggg3gi8EHaCuZ446lbBm/nRabGfe31ZW+N9Sw76DFp4jtquNddFjLxUdn5Pj8GedDO8TDtxUiiClXoYcGlAApwEjG0TkmyaQIQhIYJWJEBAGQyPk19onZCzFxvOxrR6TjyHsG1XdYLGyGJkUYo1gAHmd5OJPFa3o+yD0EHTPHvswBvxZHi1vAnE9g2LbF5Dqt57apoj7sfqzBcVNUsLhAhCFyjOCEIQAIQhAAhCEAV1pJ0di1B1psoDbQBVzbg2engJNx24HeKWhszmOIe0tcCQWuBDmkYgg3grq5YfL+bFltgpPEC6lA8dWRvJ4vpwNRwXWsepuj4aiyvqvuXU6unZnOCFv+cei20Q1fZndOz5Jo2YDl6L+yh4LQponNcWuaWubc5rgWuB3FpvC9HRuKdZZpvJrjNS4GoQhXEgStKRCAJVNGFA0r3QM2qcUBIxtAlISoUwGhqnibtUQC9bMEN4JRQ2iXVT0KOSY3VRqp7WkkAAkm4AXkncBtK3LN/MGWSj7QTEz5Ap0juexnieAVFe5p0I6qjwQlOMVlmpWKwvleGRMc9x2AeJOAHE3Kwc3dHzWESWkhzgQRG30AReNZ3xuWHNbhkzJkVnZqQxhg20xcd7nG9x4letecu+sVKnhpeFfX8f3cx1LhvaOwIQhcYzAhCEACEIQAIQhAAhCEACEIQALFZdzcs1rbSeJriPRdhI36LxeOWCyqFKE5QeqLwxptcFN5xaK546vsr+mZ8h1Gyjkbmv8A5eRWgWiBzHFj2uY9uLXAtcObTeF1GsblrINntbNWeJr6YHB7fovF7ewrs23WZx2qrK81z9n9C+Fw17xzUhWPnHoplZV9kf0rf/G8hsg5Pua7t1e1V/aLG+N5ZKx0bhiHgtI7Diu7QuaVdZpvP8/I0xmpcDLO2ruG1ZNeaMtAoCO9TxuWxLBIehJVKFICWJu1SsU9ksEsn6uKR/0GOcO8CizVjzJtr/3OoN73NHgCT4KipXpQ9+SXxZLVGPLMCtgzfzStFqo6nRxH47hiPmNxdzuHFbvm/mPDBR8tJpMbx720/NZtPE+C2tcK76yl4aHzf/F9/kZ6lz2iYbIObVnsoqxtX7ZHXvO+nyRwCzKELgVKk6ktU3lmNtt5YIQhQECEIQAIQhAAhCEACEIQAIQhAAhCEACEIQAIQhAAmyYFCE0BqmWcCtEyn+s7EIXoenmimeRZbNf4S3kfWEIXQr/py+Ba+C3G4BKhC8aYgQhCABCEIAEIQgAQhCABCEIAEIQgD//Z;" parent="1" vertex="1">
          <mxGeometry x="740.5" y="163" width="60" height="60" as="geometry" />
        </mxCell>
        <mxCell id="YtRP0REKgszaAL2Tqm2v-48" value="Terraform Destroy" style="text;align=center;verticalAlign=bottom;resizable=0;points=[];autosize=1;strokeColor=none;fillColor=none;fontStyle=1;fontFamily=Helvetica;labelBackgroundColor=none;labelBorderColor=none;html=1;imageAspect=1;" parent="1" vertex="1">
          <mxGeometry x="704.88" y="210" width="130" height="30" as="geometry" />
        </mxCell>
        <mxCell id="YtRP0REKgszaAL2Tqm2v-49" value="infra" style="text;html=1;align=center;verticalAlign=middle;resizable=0;points=[];autosize=1;strokeColor=none;fillColor=none;" parent="1" vertex="1">
          <mxGeometry x="429.35" y="180" width="50" height="30" as="geometry" />
        </mxCell>
        <mxCell id="YtRP0REKgszaAL2Tqm2v-50" value="dev" style="text;html=1;align=center;verticalAlign=middle;resizable=0;points=[];autosize=1;strokeColor=none;fillColor=none;" parent="1" vertex="1">
          <mxGeometry x="429.35" y="385.37" width="40" height="30" as="geometry" />
        </mxCell>
        <mxCell id="YtRP0REKgszaAL2Tqm2v-51" value="1" style="text;html=1;align=center;verticalAlign=middle;resizable=0;points=[];autosize=1;strokeColor=none;fillColor=none;fontStyle=1" parent="1" vertex="1">
          <mxGeometry x="574.34" y="140" width="30" height="30" as="geometry" />
        </mxCell>
        <mxCell id="YtRP0REKgszaAL2Tqm2v-52" value="2" style="text;html=1;align=center;verticalAlign=middle;resizable=0;points=[];autosize=1;strokeColor=none;fillColor=none;fontStyle=1" parent="1" vertex="1">
          <mxGeometry x="754.88" y="140" width="30" height="30" as="geometry" />
        </mxCell>
        <mxCell id="YtRP0REKgszaAL2Tqm2v-56" style="edgeStyle=orthogonalEdgeStyle;rounded=0;orthogonalLoop=1;jettySize=auto;html=1;exitX=0;exitY=1;exitDx=0;exitDy=0;" parent="1" source="YtRP0REKgszaAL2Tqm2v-41" target="YtRP0REKgszaAL2Tqm2v-54" edge="1">
          <mxGeometry relative="1" as="geometry">
            <Array as="points">
              <mxPoint x="490.35" y="284" />
            </Array>
          </mxGeometry>
        </mxCell>
        <mxCell id="YtRP0REKgszaAL2Tqm2v-54" value="&lt;b&gt;1. Creating AWS EC2 with Terraform&lt;/b&gt;" style="text;html=1;align=center;verticalAlign=middle;resizable=0;points=[];autosize=1;strokeColor=none;fillColor=none;" parent="1" vertex="1">
          <mxGeometry x="524.8799999999999" y="268.75" width="230" height="30" as="geometry" />
        </mxCell>
        <mxCell id="YtRP0REKgszaAL2Tqm2v-55" value="&lt;b&gt;2. (Manual) Destroy resources with Terraform&lt;/b&gt;" style="text;html=1;align=center;verticalAlign=middle;resizable=0;points=[];autosize=1;strokeColor=none;fillColor=none;" parent="1" vertex="1">
          <mxGeometry x="529.3399999999999" y="298.75" width="280" height="30" as="geometry" />
        </mxCell>
        <mxCell id="YtRP0REKgszaAL2Tqm2v-58" value="" style="shape=image;verticalLabelPosition=bottom;labelBackgroundColor=default;verticalAlign=top;aspect=fixed;imageAspect=0;image=data:image/png,iVBORw0KGgoAAAANSUhEUgAAAOEAAADhCAMAAAAJbSJIAAAAhFBMVEX/mQD/////lwD/kQD/kwD/lQD/kgD//Pj/7dv/8uX/pz7//vz/rU//4cP/9uz/6tX/u3T/1av/8OH/tmn/2bX/s17/3bz/vnr/oCP/zpz/tGL/xYj/+fL/ozH/woL/0aP/ypX/r1X/5sz/pDT/y5f/qkj/06j/nRj/igD/w4f/pzv/oCcFLviyAAAOlklEQVR4nOWd2ZqiOhCAMZuiQLvv2krrcOx+//c7WVkUFZKggHU142crv5XUlqTidCqXbS+crjbDtdffRQ6TaNf31sPLahr2ttV/vVPlh4/nh8kPggQhjDGg4ghh/6SvIEQg+pkc5uMqH6IqQne67xNCyRTVPaGoCKL+fupW9CRVELqjCYDoKVuWE0EwGVVBaZ3QXzgl6dKUzsK3/UBWCbvTGdGjS1GS2bRr86EsEs5nEJnQxZQIzub2HssWYW+BrOApSLToWXoyO4SjHcTW8IRguBtZeTYLhMHFpvoSoYq8BDUg7K2tqy8RDCfGg9WQ8MurkE8wel9vJOx5sIrhmRUAPSM9GhC6sxfwCcaZQbCjTdhdVDw+04LhQjsK0CX8Rq/j44zo+6WEX0v0Uj4maKlncnQIB8MXTcCsADgcvIbQB68doIlgoJF5lCYcrN+iQCEArkursSxh+DYFCsEgrJZw/0YFCgFwXyFhsHu9Cb0VtCsVj5ch9CtJIcoLQGUMTgnCDXw3WixwUwXhsQ4jVAk6WifcLt9rQ68FL4tOxoKEPaMKWhUCcMGcqhih/3YncSsAFrM3hQhH9bExaYGFSlVFCFf1BKSIKzuENfIS1wIPNghrDFjIMT4lrDVgEcRnhDUHLDBQnxDW1sgk8szcPCasqZvIyhOn8ZDQbwIgRXzo+h8R9poBSBEfBXAPCLe1i0XvCcAPdq08IFw2BZAiLnUIj/VKlx4LPpYn3NQp4X0u6K5bvEfYEDOayF2DeocwaJYGmaA7Sf8dwl1zrIwSsCtDuG+eCqkS80vFuYRh0yahEJhb8M8jHIDmjVEmAOQt2+QRrpvkCdOC18UIG+coEslzGbeETR2jTPLG6S3hsKljlAkePif8au4YZQJvtjPcEDYoo8iT2yzjmvC7ib4+LTf7bq4Iu00HpIjdh4SLJpsZIXjxiNBttpkRAt0HhLPmq5AqcXafsDHFtceSLb1lCL1mewolwLtH2HBnn0jG7acJW6LCKyWmCFsyC5mkZ2KKsLFp4a3gSR5h0B4VUiUGOYSX9qiQKvGSQ9j8iDQt6JZw1DLC0Q1hA2vAjySpDyvCFrkKIbHDUIQtSJuyEidRirBds5AJyhLOW0g4zxDO2mVnmIBZmrDbNjvDBHZThNP2DVI6TKcpwhYO0niYCkJi5RMt/kwg1QlFW0hC6BsOUtbRglCHikm2JUbec+a8dvUSQBDtzl7fgcTsCIs4eOIYu3v6QP2DLyt4rn9xiHos3Kfyk/n1AGCvOZnvww5/Tb0DeqqRS7c3mpkc9RdOnxM6+p8C4M/oasuVHwkALLZFpqs/oC/eMkkhymy1J2YKOV4dah7p7z0DjiI0qAODKG/tfML1huX23d/kEaV563ylJj4UHYZC/jc5OykD/QHGa8OM0CBxIvm7ArmOwJ/4zyF5xLgcnRACIF7hCXjuXoO1thJ5CuVcjZmSAu9s04lAwhPGOCDO1c7xU6uSCpspqXWjQberlnP1H49/NvtOA7ssCAf+5vjnOMvjQemIx7non/hPPAmSAlGiVzlwWfYW53TzGYBUwPHUMyLkv6hjthzDCKce8xFcMFQ5C/vVwPlKYQpZzTr+CW6MrGLlPhS/Ofu8v1EvMlCAywlNQjYwG2btOZHmhTsgGRmelBKSWRsHwmrgshKDfHtmVyRAxMAnsgFCv2Bv5A2v/xgK38F/NqmU2HLylC0IFBETmaiyUqaCtbjOjvecsG81KJXzilOpeScJwZFPMo6tflb5dra4rqahgXe+FuZ/HUtBaSx4HyslzrPlgogIAfaX2BQ5scrZVAWReLfN2jthhGO7hDKiFxONCP+2Es9M+JLQz2/yCyiqrXi3mIeuxcOOZEwJLRcwxFCUhLL0LCciZP8eQMgdnbCQUuPC2Kkj2u6vtcYw1BI46ZBDW2hywYR1SZQrW4JQGQ8OIILSECGuWLH1StoiEbYki2LhhNjpDoMPlNAgohECEDoeRnPfn64WZwTPaXcgg84jIxBx6gHjU6I26SDkREltvBv4Q0zMD3xQW+d0fgw/hvxmGuSN/TShzC/4RBSD0ANCVWP2Bmk+VX4KcCYIDPfAtMcB+KGEZtMQqHThSiQh4GZFpEbCbCKVezNomX7EmwUBuGplOv8ztBKo42yNymwA3Am9VdAivQFSqQYzOsKmstqQtC3JaAQ3xwm/zcqAcOv0jJxF6gjA1nWDZHenIpQqpjjCbDLXjr/Vv4RZTWeLDsKbbEb2ZfSApOeEJsOAqCE69RDLBqDj7TPzULlHiiNYmebEa/TJZcp/tTaLYbRJb6aYmiCi0DGKu2WOO/hV4TEAaJchlJOOjhSRaAkfIUcuFkPyJnkAmIBhYlfPRrG3szJwFiobSh8Ck3qJCZOpxklF8MLHoQdEyDPOm2kU0lH5sElMgleOyfI9EZYv84gZj+/EycMM8f3JomAifpkDFvq99xsD9COHiIGxwRvHZFu3eMJsnUcSJQmgqMP8EzUmEV6InCOE4se475CRTDYNsg08dPTrPPTPxQOc0j+SWkCPf3fhG3r/jZNnFdTd/3g48GCXi9rS/GdQ7Vw7Jlu9JOEqrUMZh6WKM8KccH2rgokoXUSc/d/9WabyKZN6rueY5L9QPECYrn6qUkycqUuDyzmV4RaeQ4zn5CcG13GoyqAN5iHoOyZ7MKSlSYp1qZAkWSkQbqKbflEci3AzE5ZqbOhk4lCgypEmDm3nRPp/HXuLHmRpEzPwiRNLivlJhS32fGr4ddJ1MPa++REi0YKffZoMbozOuJjwpQqcwZ4ag/5eZPRyIsbF/CTtS2LgpJKcJG/CRg3806S/jP68i/q1cv3lq4TkJBYbeTAnVRJV4WriulGccSUjEN3p/vDeMy63h2/3UOonCeljnCS6wOq8Z2rpEucfxz6/d6cPcLKLYdszkqXuMDHxcTE/8Wvx4Z300mVeKz33zxjQbCY6gKSap2w3PAJnB3IX6YKZLLmlkwRVVs2YSfJ7dWmAuzCuu0WmhPRZ0XD65QY9fxX39sbRVSkcEV6pyv4ZpnKVGAEEfzdzfjfLwPUPNnrZR0b+UApGhMDMtQ8Gn8nuf2D3tkDNWzKuP25nFNM0QGhM05ojCPlC41KT3KIBQnOLRh/7fS40P6z3Fn1gujmK5vgmdZpKhW20wsu+5/1GRP8CG7wyqrVVJ9QxnldhvBXJnZ41HxNNteulVw7criDn+7q3leZsQqFuzZtG05VdjwBIzj0ImpogPd11C5auDvaVXHEBorzeZJqagFvttSdekAmGFTCCWbfnjw77yfHc7x+H/7YmOkQG64ei+7tbASNI3SfILCrPN/UK33z9UHsNWPbUDvaGG12ffg+v85y0HpOvAeuv4+NIZPPdk/Fabf7nE5FuckK96JKv4xusewCi6hPzM7TcZREgtB8H63gZVdNZsL0YRqUsGPeDcTeAWJuRAMM+LwIERBbIdU0p209jtpCPo2TFNhwiGy6S4kUnWeGiEZdY5NCcS8jCvjaQ6VVsvEeEhmvLQ/yjfRNVH9fbgin3tRntTaSCokxfn6/Nn8E1nd53Urzbemxo8lpkqDdI5d5E49gbwEm2RBZMF1E5Su73fjZhupHVSBhowl7TrETI/aUWWrZgctOQOfAPHobPr8tlbAg6s1WYbdPVkwc1eLFVt5+F3CNsss87FuTk7RwK/NWwjx9eeQzOi+/wJhANJqpQSpiv+NV7Qm6kDPfqpz4NRfm7o2hEMPZHJxpm9iO5xQ870e9xsj+N/HHuhXFBcmsdf8h/mvtN4r36lg6qU0YrN4dmQl22L8zV3VATn7ew1jsJIHwwvTnUP2ZCeTqTBtqb9eMzMzZ3VmN4NLiVOTg52a354Nzpau9TSM492T2qThW517rHbzu6DW7B30j/uEXq7Jrp+cMrYQvUi5LXo42/+7kFNZOsJXX+0PJ2fUesrxxXBVXpToeOnQuvs5I6Q1rNOWCqSnLeTMeP4AL/tC5703zh70+fA66saMrXypazy7/5l5ty692AVWImP4ifmKrouzNnuas9j88DM0LYaTS+5sy2ohL0PKAzlMx5/JcdV7dyRrvgV2V6KnxAX4z29zb5gP407esx9HVF2P4+UR/Q66tltianX9sH9Nxrf99EO+Waekh+78s2OYw7/Uvb34P2A/oIt0WJ93tBt0WJD/p5t78n+wf01W9DEvX4boQPuN+i/XeUvPsMjrE8v2em6R6jwF1B7b/v6QPu7Gr/vWsNviSh6N15jR2nxe8/bP8dlk29h/SSy/Kpd8l+wH3AzXMZZe90/oB7uT/gbvVGZRm3GUUhwqDinQT2BOC8c0TPCZtTBIf5HamfEzbFoN41o88JO6MmIOZ0OS9O2FnVHxHebDEvRdjZ1B3xptFiWcK6I2bOs+gR1hvxOWABwjojPh2ixQjra26eGZnChHV1Gk/cRBlC6vrrF8CBx46+JGGnV7sYFeBHoVp5ws52Wa9kCi8fBNtahDRfrFNKLM+R2yWsk9co4iU0CDt+tefuCwvIa+xmhbAT7OowUtGu1OmxUoSsZ+C71Qjg/vljGhB2wptrV14rGJQ8UFWasDNYv1GNAK7zFl/sElKD8zY1YqBxtlGDsDMYvkWNAA5LK1CTsNP5Wr7eqKKl1rlNTcJOdU2i7gi+2SdTNWGnu6ikSdQdPrjIPdZeKWGn485eNB0BnLnPH6cCQppTeS9gBNDTm4A2CKnJ8Soeq9iQz5iQ6nFSISOGk4J5boWENB6/mFz4el8AQhfTDg12CKmMbPQ0zgqGOytdNiwR0sG6sKlIqr6F4fSLxRZhh90eaqdtAEBwNn/+dUXFIiGNAqYzYtY9gJ3fn021vXueWCVk4i8cg0ZYzsKgM0q+WCek4o4mZTtBMDowGRmELnelCkIm7nTfJ6RA3wSAKRzq76dV0DGpipDLeM57XzxqhIV+Jof5w+YgplIpoZBtL5yuNsO119/xawqiaNf31sPNahr2ihauDeR/KS+yPL1MpQAAAAAASUVORK5CYII=;" parent="1" vertex="1">
          <mxGeometry x="498.75" y="387.24" width="60" height="60" as="geometry" />
        </mxCell>
        <mxCell id="YtRP0REKgszaAL2Tqm2v-59" value="&lt;b&gt;2. Building the application with maven&lt;/b&gt;" style="text;html=1;align=center;verticalAlign=middle;resizable=0;points=[];autosize=1;strokeColor=none;fillColor=none;" parent="1" vertex="1">
          <mxGeometry x="529.3399999999999" y="518.75" width="240" height="30" as="geometry" />
        </mxCell>
        <mxCell id="q2ILOmMbD4CQgBVCTnmf-1" value="" style="image;aspect=fixed;perimeter=ellipsePerimeter;html=1;align=center;shadow=0;dashed=0;fontColor=#4277BB;labelBackgroundColor=default;fontSize=12;spacingTop=3;image=img/lib/ibm/devops/continuous_testing.svg;" vertex="1" parent="1">
          <mxGeometry x="662.1700000000001" y="387.24" width="60" height="60" as="geometry" />
        </mxCell>
        <mxCell id="q2ILOmMbD4CQgBVCTnmf-2" value="Test" style="text;align=center;verticalAlign=bottom;resizable=0;points=[];autosize=1;strokeColor=none;fillColor=none;fontStyle=1;fontFamily=Helvetica;labelBackgroundColor=none;labelBorderColor=none;html=1;imageAspect=1;" vertex="1" parent="1">
          <mxGeometry x="667.1700000000002" y="438.1600000000001" width="50" height="30" as="geometry" />
        </mxCell>
        <mxCell id="q2ILOmMbD4CQgBVCTnmf-4" value="" style="shape=image;verticalLabelPosition=bottom;labelBackgroundColor=default;verticalAlign=top;aspect=fixed;imageAspect=0;image=data:image/png,iVBORw0KGgoAAAANSUhEUgAAAMgAAADICAMAAACahl6sAAAAilBMVEX///8AAABXV1e3t7dbW1uzs7Py8vL5+fkICAgWFhYQEBD19fXr6+sTExMPDw/8/PyQkJAgICC+vr5GRkbZ2dno6Oh+fn6FhYUaGhrHx8dRUVF6enqZmZlnZ2dycnKTk5Ojo6M/Pz82NjbOzs6goKAuLi5EREQpKSmrq6s0NDRhYWE8PDze3t5tbW3M00e2AAAM6UlEQVR4nO2da3vqIAyA3cXbpmu937XTOZ3T///3jgTaAgVKKKh7npNPq50tryUkBJrUav/lv/wpaezqy8nldfC73R96vcN++zt4vUyW9V3j3i2zltFLfPrpPmml+3OK+6N7t9IszVk8b+sReGnP41nz3u1Vy27y3bKDSKX1HQ/v3WpJmi+rnqYjTa8KclWTqaaz9VYv0b1bn0rUX8mtbP3M15v67MxrdtQYzuqb9fxHfm7dVf8RWM6LqdCs6XxcPxsbFp2PY0mVpuPzrdqradNxwLfnsEqsG3ROVgf+u4Pj/R5LI+YUozXYoH/V82bA9bPe5j1EK0tltHjLKZ6Pjo14P85zlrdFx28bLaSzyO//nVQy143kO/9FbozSGH+kt24vPOjpcJEp/8f4dk5MtMxu+5N4Ms/NZJ/9NF83Uvt+dstB3+t1sxHwZ+bzuhoZvWYYO9/XnmUor8FVJUmN+HeQX232yS7fTUJcPpNz+pMdXkLdop6ayUFAY5+wseotDuiBN+P0LsdAd2ik2nEK3IEzNTwFGYlnzB/poXvVED3reEnv5X08qdWWzJJfsL/S8Pr7vmJRGhdm6b+QXyyT5opeeIp9HEPWTdAoL8zoXryq42hLrzpHasfwOfOinp6RKCM2Qv561Mgh67Ib5Nc4DBeUmCmKt4l9n/rrbZwJlDEcUPq0e3U92d4jVfNfVCxKhYFHYV265cWifDFtxSjdToOBRmmyCyW4NqtkSa80RnxlN9djAArCOkQL+p0luuGSMIVDDOdlGETmCBT2S8b4thev0qpbf8EGA4nCdLTSM6H60bK2grYYOJQXSpK4EFA5Ug7beSAGA4XSpyTOYxf9vi0HFgODwlriaE+GYAct+5ULBgKF9q6uk40fUb/ESs9dMexRaC/vOfhdTWpUbcbdKhjWKHT8/MX7wtRvt7CDu4Gpkf5QqGW8YDnoD/Ba+n8zDxh2KBH1VpAzrRkoV+mD9IVBZFA2JtHO3kLNfhug6O0Sf9cnhg3KCLz6HmauTeen5uv6xrBA6cM/new5EviCcT4YAqMchbqw1hb+DBGy+R0wSlHgvm+2MUj477be9oTEKEGhajKw46AdS+uZzL6NrQiM8gLnExuOEcTbdYbnFhhGFIjcdW1cFRixeuq1zf6NMIho1i2oZbAYuegQp+xY/c/bYehR6nCu1KOP9jrgW2MAimouBF3mp2ydEXyst2IXvAcGkc8iygisQ4nP1YDhrRCxuBeGGgXMYtvsqYzJ/xwkX/GeGERklCaszk1MHB14aqKm3xuDiIQC+v5hGoJh8vItYPzeFyEVEeWTfGSY9I1gFsKNbI+CQYRHARtheCTwQHJH5uWBMIj85ijg7WkfSQPiP+kM7NEwiGQoM3LU1W2tgmEtfSDviw/zRe8hH+O07fBINDOmCLyY/PF1Hg3lY5xrBXjBPbV5hxjYD/9JZ/xAKNJGLnCl1NFDeFqJ+NnDoBT2o8GsSTnDOpMzbWrUud3eD4HyxmE0qXlogjOlmvSCd7Kgfz9PNzlK494oAkY8ZVHDNTmlGIEj2IfMCJ+fnqbxg6DwGO/xNAt/DsnJaVHdwVim3glEJ0WUN9PNAmJMeAzoTmkc95McFL18CFonPMgDoHSLGDkIrAsWYgtNEnJopV/LlsmncW49G5MboygxcpAG8Qzbct8CA/OcHnHr/e17oWgwuCUCWJaR+xb0rCwWKWxcEFEMLx3dBIMDAVOykkDImNXKGiztwLg5ioAxkd52ykCgb/VEDhjLcjtZ2EpyUxQjBr/6BL6IuEAKjm/uTCr2xLQnN0IRMRQ3ehVbLUZKIIKY23vl5p6boFjcJAeR+tFVmqS3HfJjzS6l4ChWN+AWNsnEo8XHfGDCxem/drtVl7uTovtWxLBTRA7kRI75RUXobIkFSKkmBscQQMC480oCpoVziQ0gxiH+BhgCCCjJc35cI62ZcsdGkAAoqNH9Vd/wETnPrxmWgHhGQXpBPAh0JWkmz89RSkE8oggYNi42DwKzwdzdAl3nJ/IWIJ5QHGYKPAgETHJth1GMn/5agciznmn5FzxgiCCg7fmy1M/1qMU79pYghek0EmPjNG/jQSJiybfZIRkmhICWNUgFFOf4hrBliYS32tllyGlhowMCRELZWKLwGMiIkwACw1Y6WuzIwdoZxAGlAoYEAsvuqScPC0BCQBgJIgYCS1EEDHyAWQARBtwlf+AGIkaYjSi9ZSUMCQQeQrpJe0IOhBV4BxAJZanJAVEZQwIBvz1dF4V+JkRRnUCuKIsSFA8YEggYklS/YSuBEOx2BClB8YIhgXTIJ6lFhDk8f9YdxIDiCUMCicgn6WyXLBZ2fYFoULxhyHt4iUPwy/4m21CnwtlKIAoUAWONTGhjBiHOauqjEDMvxrkqgsgoPjFkEPLE9+xvsrXjIJytDCKiZDKqjqECOXB/74WzHkCu/vRaQvGCIYOQp5B2p0AgEoonDBNIkK5FpbUeecYwda0Ayp4L3ZQ/84ZhUnbvw68gsPur7vGC+uHXs0GUJDAIsa2pQfTqohQkLIjgonh0GhUSFkRwGoXp4h8DEdx4TxMrjYQFESZWXqa6WgkLIkx1PQQfDBIWRAg+VA4HGSUsiKDfFQN0JRIWRAjQVQqZlkpYECFkWiGIbSFBQaQgtuuygpUEBZGWFUD1j38RRFrogd1zyKU3awkKIi294RdDERIURFoMBae+/RdB5HV11IYBpIQEKWwYQGzhQEtIkMIWDutNNQ4SEqSwqcZym5OThASBbU7CPlObjWeOEhCkuPHMYiugswQEUWwFLNucWUECgig2Z9LeptsuW0nCgai2y5o2MFeUcCCwgVneHA87neZ/C0S5pTxSb/L3IMFA1Jv8la9deJFgIOrXLhQvwniSYCDwwmfxRRj6atLw74CAxVC9iSi8LObxvqFAdC+LCa/v/QEQ+vqeMk0T90LlHwABVVenrIGJ/P6vgBheceVeOn58ENNLx7UNOQlPK/a4dukbpAXuLsw7dFlB6Yv5sFByXnlD8QvSWsGsyfxivpAqwRuKTxCGwR6IPntFR0he4QnFH0iGUZq8gj6Sz+zQC4ovkByDeSemHJI0wQs3qHlA8QPSunC2D672Zsy5U0y5UxnFB4iAUWuCnTCm3FEmQaqIUh1ExGCr0NOSdI1g+T8kF2Z0qYBSFUTGYGmpEjNHLSKrV8UcphVQqoEUMJjbsS0tSKRL3eaMUgVEgWGbui1NpqfogY4o7iAqjFoDJoA2aUA7+vSGTiiuINnmO1EgtmDIhsmJKeGkA4obiAaDXcgymylNAarJkYtGcQHRYbBsmKY0q7ycwQvWJgxF7rPEg2gxahH8xl3ruhs0Jbi+mgEKBQuix2CmEJMIH1aCFDEjFxQciAmDmQY5XYVJLFJJW6NgQAqbtwU5g4IcUCUkd9DKrTG5tyWKPUhJVcd3cDpwyb3TOhfPZkfACsUWRPlWACcRTbOf4DjSBPiLkv+yeIvCDqQMg0UW8Qnwa02aFLC0fAlfPNQZpByDhniePh3Kc3XoS0XlY13Jm0blIBYYzCIcnIpzDWGQsCnbYUQpA7HBYN/vOpZInNkXUjGgmEGsMCoWUsGVttGimED4l0lLOexKoaiFOsKWRWE0KHoQS4xavWKJHiKs/JPlNZQoOhBbDNYvqpbkinFXUbycrgaxL2hMx11s5b+isMJeC9vqwwUUFYg9RkTtILZ+ikqonjw9W5siCaUI8mZfXvqdlf/xUn6PlSjb2pcRFHJRyCAIjNoZ/ERMiTaj9Gkynzai0jSHIoLwqVRsb+yrsGNeahNTAS9LdMKDoDAiOh98OngsedxhaaUHmCqVDCUH6WIwsuKnn17LETdZnds2qhwtpGZKQXAYtTpLTuW3HO1VvpwKBF9RKAgSo8Hq+LYSzLfsZOdWsrkBPWOEq49cZ+lIDgFKNl+bdGIjzyuqniteRuky/woVZ0DIkQ1EH0HLmk/YyN0NVda8xhea92SiilJPE3fMwz73JM10p6hw4kGyYg7tgI+DSifVlPIqc2jJSzKFrmVPb/eToaBrzpvkJcPYev+J1BJ9ZZnz9okntW9+7dNrThPbKUN1aUwyn7C99lB1fLjOkkyi3DEPwk86Pr8q3bvxlRcIsZ9x+ZPOOE/V2Zonjg1oJPM8Utm1ncZ7lvcNl6ypNYjRfWwYD7h4a28ZypCXS1QXKgr2Tl/WMMOvk5B+a1C/nYor5TwW88215+Pj0NimaHgcz8WMob2xx8mTs0T9lZzItLWfX+L6bNjhiKLOcFaPL/O9HL1vX/p3fhi5XFk0yfPe2r3e4dDrtTUB1d4DUTARNddGXMaH20hzFz/bpgB9jneP9igk6fTj09aQ/be9PcX9+9gLF3kf1peT9Wnwu91fNeSw3/4OTuvJsj68n634L//FSf4BSXL0bD7Ki6sAAAAASUVORK5CYII=;" vertex="1" parent="1">
          <mxGeometry x="814.35" y="387.24" width="60" height="60" as="geometry" />
        </mxCell>
        <mxCell id="q2ILOmMbD4CQgBVCTnmf-5" value="5" style="text;html=1;align=center;verticalAlign=middle;resizable=0;points=[];autosize=1;strokeColor=none;fillColor=none;fontStyle=1" vertex="1" parent="1">
          <mxGeometry x="829.35" y="363.75" width="30" height="30" as="geometry" />
        </mxCell>
        <mxCell id="q2ILOmMbD4CQgBVCTnmf-6" value="Test" style="text;align=center;verticalAlign=bottom;resizable=0;points=[];autosize=1;strokeColor=none;fillColor=none;fontStyle=1;fontFamily=Helvetica;labelBackgroundColor=none;labelBorderColor=none;html=1;imageAspect=1;" vertex="1" parent="1">
          <mxGeometry x="819.3500000000003" y="438.1600000000001" width="50" height="30" as="geometry" />
        </mxCell>
        <mxCell id="q2ILOmMbD4CQgBVCTnmf-8" style="edgeStyle=orthogonalEdgeStyle;rounded=0;orthogonalLoop=1;jettySize=auto;html=1;exitX=0;exitY=1;exitDx=0;exitDy=0;" edge="1" parent="1" source="YtRP0REKgszaAL2Tqm2v-17" target="q2ILOmMbD4CQgBVCTnmf-7">
          <mxGeometry relative="1" as="geometry">
            <Array as="points">
              <mxPoint x="487.35" y="624" />
            </Array>
          </mxGeometry>
        </mxCell>
        <mxCell id="q2ILOmMbD4CQgBVCTnmf-7" value="&lt;b&gt;5. Blackbox testing using Automation testing tools&amp;nbsp;&lt;/b&gt;" style="text;html=1;align=center;verticalAlign=middle;resizable=0;points=[];autosize=1;strokeColor=none;fillColor=none;" vertex="1" parent="1">
          <mxGeometry x="524.8799999999999" y="608.75" width="320" height="30" as="geometry" />
        </mxCell>
      </root>
    </mxGraphModel>
  </diagram>
</mxfile>
